<svg xmlns="http://www.w3.org/2000/svg" width="18" height="18" viewBox="0 0 18 18" fill="none">
  <path fill-rule="evenodd" clip-rule="evenodd" d="M15.75 9C15.75 9.31066 15.4982 9.5625 15.1875 9.5625L2.8125 9.5625C2.50184 9.5625 2.25 9.31066 2.25 9C2.25 8.68934 2.50184 8.4375 2.8125 8.4375L15.1875 8.4375C15.4982 8.4375 15.75 8.68934 15.75 9Z" fill="#0D0E0D"/>
  <path fill-rule="evenodd" clip-rule="evenodd" d="M8.27275 3.53975C8.49242 3.75942 8.49242 4.11558 8.27275 4.33525L3.608 9L8.27275 13.6648C8.49242 13.8844 8.49242 14.2406 8.27275 14.4602C8.05308 14.6799 7.69692 14.6799 7.47725 14.4602L2.41475 9.39775C2.19508 9.17808 2.19508 8.82192 2.41475 8.60225L7.47725 3.53975C7.69692 3.32008 8.05308 3.32008 8.27275 3.53975Z" fill="#0D0E0D"/>
</svg>
