<svg xmlns="http://www.w3.org/2000/svg" width="17" height="17" viewBox="0 0 17 17" fill="none">
  <path fill-rule="evenodd" clip-rule="evenodd" d="M1.59375 3.1875C1.59375 2.8941 1.3559 2.65625 1.0625 2.65625C0.769099 2.65625 0.53125 2.8941 0.53125 3.1875V13.8125C0.53125 14.1059 0.769099 14.3438 1.0625 14.3438C1.3559 14.3438 1.59375 14.1059 1.59375 13.8125V11.6875H15.4062V13.8125C15.4062 14.1059 15.6441 14.3438 15.9375 14.3438C16.2309 14.3438 16.4688 14.1059 16.4688 13.8125V7.4375C16.4688 6.73302 16.1889 6.05739 15.6908 5.55925C15.1926 5.0611 14.517 4.78125 13.8125 4.78125H1.59375V3.1875ZM1.59375 5.84375V10.625H6.375V5.84375H1.59375ZM15.4062 10.625H7.4375V5.84375H13.8125C14.2352 5.84375 14.6406 6.01166 14.9395 6.31055C15.2383 6.60943 15.4062 7.01481 15.4062 7.4375V10.625Z" fill="#A3A3A3"/>
</svg>
