<svg xmlns="http://www.w3.org/2000/svg" width="14" height="14" viewBox="0 0 14 14" fill="none">
  <path fill-rule="evenodd" clip-rule="evenodd" d="M1.75 2.625C1.75 2.14175 2.14175 1.75 2.625 1.75H11.375C11.8582 1.75 12.25 2.14175 12.25 2.625V11.375C12.25 11.8582 11.8582 12.25 11.375 12.25H2.625C2.14175 12.25 1.75 11.8582 1.75 11.375V2.625ZM11.375 2.625H2.625V11.375H11.375V2.625Z" fill="#6E6E6E"/>
  <path fill-rule="evenodd" clip-rule="evenodd" d="M9.625 0.875C9.86662 0.875 10.0625 1.07088 10.0625 1.3125V3.0625C10.0625 3.30412 9.86662 3.5 9.625 3.5C9.38338 3.5 9.1875 3.30412 9.1875 3.0625V1.3125C9.1875 1.07088 9.38338 0.875 9.625 0.875Z" fill="#6E6E6E"/>
  <path fill-rule="evenodd" clip-rule="evenodd" d="M4.375 0.875C4.61662 0.875 4.8125 1.07088 4.8125 1.3125V3.0625C4.8125 3.30412 4.61662 3.5 4.375 3.5C4.13338 3.5 3.9375 3.30412 3.9375 3.0625V1.3125C3.9375 1.07088 4.13338 0.875 4.375 0.875Z" fill="#6E6E6E"/>
  <path fill-rule="evenodd" clip-rule="evenodd" d="M1.75 4.8125C1.75 4.57088 1.94588 4.375 2.1875 4.375H11.8125C12.0541 4.375 12.25 4.57088 12.25 4.8125C12.25 5.05412 12.0541 5.25 11.8125 5.25H2.1875C1.94588 5.25 1.75 5.05412 1.75 4.8125Z" fill="#6E6E6E"/>
</svg>
