<svg xmlns="http://www.w3.org/2000/svg" width="12" height="12" viewBox="0 0 12 12" fill="none">
  <path fill-rule="evenodd" clip-rule="evenodd" d="M5.05366 2.21337C4.9165 2.33212 4.7522 2.45716 4.56433 2.53531C4.37504 2.61404 4.17057 2.64085 3.99059 2.65268C3.87274 2.66043 3.74125 2.66253 3.62141 2.66444C3.56454 2.66535 3.51029 2.66621 3.46137 2.66762C3.10089 2.67799 2.9174 2.72231 2.81985 2.81985C2.72285 2.91685 2.68032 3.09488 2.67117 3.45313C2.66999 3.49902 2.6693 3.54935 2.66856 3.60212C2.66686 3.72454 2.66498 3.86006 2.65658 3.98353C2.64416 4.16613 2.6158 4.37213 2.53495 4.56517C2.45495 4.7562 2.32985 4.92206 2.20976 5.06116C2.12784 5.15606 2.03333 5.25471 1.94757 5.34423C1.91108 5.38233 1.87616 5.41877 1.84447 5.45257C1.72862 5.57615 1.63909 5.68107 1.57818 5.77989C1.51878 5.87624 1.5 5.94564 1.5 6C1.5 6.05385 1.51899 6.12439 1.57968 6.22304C1.64158 6.32366 1.73232 6.43055 1.84854 6.55505C1.88176 6.59064 1.91862 6.62921 1.95712 6.66952C2.0416 6.75795 2.13401 6.85468 2.21337 6.94634C2.33212 7.0835 2.45716 7.2478 2.53531 7.43567C2.61404 7.62496 2.64085 7.82943 2.65268 8.00941C2.66043 8.12726 2.66253 8.25875 2.66444 8.37859C2.66535 8.43546 2.66621 8.48971 2.66762 8.53863C2.67799 8.89911 2.72231 9.0826 2.81985 9.18015C2.91685 9.27715 3.09488 9.31968 3.45313 9.32883C3.49902 9.33001 3.54936 9.33071 3.60213 9.33144C3.72455 9.33314 3.86007 9.33502 3.98353 9.34342C4.16613 9.35584 4.37213 9.3842 4.56517 9.46505C4.7562 9.54505 4.92206 9.67015 5.06116 9.79024C5.15606 9.87216 5.2547 9.96666 5.34422 10.0524C5.38232 10.0889 5.41877 10.1238 5.45257 10.1555C5.57615 10.2714 5.68107 10.3609 5.77989 10.4218C5.87624 10.4812 5.94564 10.5 6 10.5C6.05385 10.5 6.12439 10.481 6.22304 10.4203C6.32366 10.3584 6.43055 10.2677 6.55505 10.1515C6.59063 10.1182 6.62921 10.0814 6.66952 10.0429C6.75795 9.9584 6.85468 9.86599 6.94634 9.78663C7.0835 9.66788 7.2478 9.54284 7.43567 9.46469C7.62496 9.38596 7.82943 9.35915 8.00941 9.34732C8.12725 9.33957 8.25874 9.33747 8.37858 9.33556C8.43545 9.33465 8.48971 9.33379 8.53863 9.33238C8.89911 9.32201 9.0826 9.27769 9.18015 9.18015C9.27715 9.08315 9.31968 8.90512 9.32883 8.54687C9.33001 8.50098 9.33071 8.45064 9.33144 8.39787C9.33314 8.27545 9.33502 8.13993 9.34342 8.01647C9.35584 7.83387 9.3842 7.62787 9.46505 7.43483C9.54505 7.2438 9.67015 7.07794 9.79024 6.93884C9.87216 6.84394 9.96666 6.7453 10.0524 6.65578C10.0889 6.61768 10.1238 6.58123 10.1555 6.54743C10.2714 6.42385 10.3609 6.31893 10.4218 6.22011C10.4812 6.12376 10.5 6.05436 10.5 6C10.5 5.94615 10.481 5.87561 10.4203 5.77696C10.3584 5.67634 10.2677 5.56945 10.1515 5.44495C10.1182 5.40937 10.0814 5.37079 10.0429 5.33048C9.9584 5.24205 9.86599 5.14532 9.78663 5.05366C9.66788 4.9165 9.54284 4.7522 9.46469 4.56433C9.38596 4.37504 9.35915 4.17057 9.34732 3.99059C9.33957 3.87275 9.33747 3.74126 9.33556 3.62142C9.33465 3.56455 9.33379 3.51029 9.33238 3.46137C9.32201 3.10089 9.27769 2.9174 9.18015 2.81985C9.08315 2.72285 8.90512 2.68032 8.54687 2.67117C8.50098 2.66999 8.45065 2.6693 8.39788 2.66856C8.27546 2.66686 8.13994 2.66498 8.01647 2.65658C7.83387 2.64416 7.62787 2.6158 7.43483 2.53495C7.2438 2.45495 7.07794 2.32985 6.93884 2.20976C6.84394 2.12784 6.74529 2.03333 6.65577 1.94757C6.61767 1.91108 6.58123 1.87616 6.54743 1.84447C6.42385 1.72862 6.31893 1.63909 6.22011 1.57818C6.12376 1.51878 6.05436 1.5 6 1.5C5.94615 1.5 5.87561 1.51899 5.77696 1.57968C5.67634 1.64158 5.56945 1.73232 5.44495 1.84854C5.40936 1.88176 5.37079 1.91862 5.33048 1.95712C5.24205 2.0416 5.14532 2.13401 5.05366 2.21337ZM5.38398 0.940877C5.55368 0.83648 5.76088 0.75 6 0.75C6.23861 0.75 6.4446 0.835512 6.61368 0.939739C6.78029 1.04245 6.93084 1.17587 7.06038 1.29732C7.10754 1.34154 7.15107 1.38327 7.19267 1.42316C7.27448 1.5016 7.34888 1.57293 7.42894 1.64204C7.54589 1.743 7.64135 1.80833 7.72455 1.84317C7.80573 1.87717 7.91613 1.89802 8.06736 1.90831C8.17063 1.91533 8.27076 1.91667 8.38165 1.91815C8.43952 1.91892 8.50032 1.91973 8.56602 1.92141C8.89566 1.92983 9.37623 1.95527 9.71048 2.28952C10.0442 2.62323 10.0725 3.1077 10.0821 3.4398C10.0841 3.51077 10.0851 3.5757 10.086 3.63725C10.0876 3.74418 10.0891 3.84092 10.0957 3.9414C10.1057 4.09349 10.1258 4.20075 10.1572 4.2763C10.1892 4.35326 10.2522 4.44561 10.3536 4.56275C10.4214 4.64095 10.4909 4.71368 10.5674 4.79368C10.6092 4.83732 10.653 4.88313 10.6997 4.93317C10.822 5.06414 10.9559 5.21624 11.0591 5.38398C11.1635 5.55368 11.25 5.76088 11.25 6C11.25 6.23861 11.1645 6.4446 11.0603 6.61368C10.9576 6.78029 10.8241 6.93084 10.7027 7.06038C10.6585 7.10754 10.6167 7.15106 10.5768 7.19267C10.4984 7.27448 10.4271 7.34888 10.358 7.42894C10.257 7.54589 10.1917 7.64135 10.1568 7.72455C10.1228 7.80573 10.102 7.91613 10.0917 8.06736C10.0847 8.17063 10.0833 8.27076 10.0819 8.38165C10.0811 8.43952 10.0803 8.50032 10.0786 8.56602C10.0702 8.89566 10.0447 9.37623 9.71048 9.71048C9.37677 10.0442 8.8923 10.0725 8.5602 10.0821C8.48923 10.0841 8.4243 10.0851 8.36275 10.086C8.25582 10.0876 8.15908 10.0891 8.0586 10.0957C7.90651 10.1057 7.79925 10.1258 7.7237 10.1572C7.64674 10.1892 7.55439 10.2522 7.43725 10.3536C7.35905 10.4214 7.28632 10.4909 7.20632 10.5674C7.16268 10.6092 7.11687 10.653 7.06683 10.6997C6.93586 10.822 6.78376 10.9559 6.61602 11.0591C6.44632 11.1635 6.23912 11.25 6 11.25C5.76139 11.25 5.5554 11.1645 5.38632 11.0603C5.21971 10.9576 5.06916 10.8241 4.93962 10.7027C4.89246 10.6585 4.84893 10.6167 4.80733 10.5768C4.72552 10.4984 4.65112 10.4271 4.57107 10.358C4.45412 10.257 4.35865 10.1917 4.27545 10.1568C4.19427 10.1228 4.08387 10.102 3.93264 10.0917C3.82937 10.0847 3.72924 10.0833 3.61836 10.0819C3.56048 10.0811 3.49968 10.0803 3.43398 10.0786C3.10434 10.0702 2.62377 10.0447 2.28952 9.71048C1.95582 9.37677 1.92748 8.8923 1.91793 8.5602C1.91589 8.48923 1.91491 8.4243 1.91398 8.36275C1.91236 8.25582 1.9109 8.15908 1.9043 8.0586C1.8943 7.90651 1.87424 7.79925 1.84282 7.7237C1.81081 7.64674 1.74777 7.55439 1.64635 7.43725C1.57864 7.35905 1.50908 7.28632 1.43256 7.20632C1.39082 7.16268 1.347 7.11687 1.30029 7.06683C1.17803 6.93586 1.04407 6.78376 0.940877 6.61602C0.83648 6.44632 0.75 6.23912 0.75 6C0.75 5.76139 0.835512 5.5554 0.939739 5.38632C1.04245 5.21971 1.17587 5.06916 1.29732 4.93962C1.34154 4.89245 1.38327 4.84893 1.42316 4.80733C1.5016 4.72552 1.57293 4.65112 1.64204 4.57106C1.743 4.45412 1.80833 4.35865 1.84317 4.27545C1.87717 4.19427 1.89802 4.08387 1.90831 3.93264C1.91533 3.82937 1.91667 3.72924 1.91815 3.61835C1.91892 3.56048 1.91973 3.49968 1.92141 3.43398C1.92983 3.10434 1.95527 2.62377 2.28952 2.28952C2.62323 1.95582 3.1077 1.92748 3.4398 1.91793C3.51077 1.91589 3.5757 1.91491 3.63725 1.91398C3.74418 1.91236 3.84092 1.9109 3.9414 1.9043C4.09349 1.8943 4.20075 1.87424 4.2763 1.84282C4.35326 1.81081 4.44561 1.74777 4.56275 1.64635C4.64095 1.57864 4.71368 1.50908 4.79368 1.43256C4.83732 1.39082 4.88313 1.347 4.93317 1.30029C5.06414 1.17803 5.21624 1.04407 5.38398 0.940877Z" fill="#6E6E6E"/>
  <path fill-rule="evenodd" clip-rule="evenodd" d="M8.33383 4.61615C8.47679 4.766 8.4712 5.00337 8.32135 5.14633L5.56979 7.77133C5.42481 7.90964 5.19672 7.90954 5.05186 7.77111L3.67842 6.45861C3.52869 6.31552 3.5233 6.07815 3.66639 5.92842C3.80948 5.77869 4.04685 5.7733 4.19658 5.91639L5.31116 6.98151L7.80365 4.60367C7.9535 4.46071 8.19087 4.4663 8.33383 4.61615Z" fill="#6E6E6E"/>
</svg>
