<svg xmlns="http://www.w3.org/2000/svg" width="17" height="17" viewBox="0 0 17 17" fill="none">
  <path fill-rule="evenodd" clip-rule="evenodd" d="M5.84375 1.0625C6.13715 1.0625 6.375 1.30035 6.375 1.59375V3.71875C6.375 4.01215 6.13715 4.25 5.84375 4.25C5.55035 4.25 5.3125 4.01215 5.3125 3.71875V1.59375C5.3125 1.30035 5.55035 1.0625 5.84375 1.0625Z" fill="#A3A3A3"/>
  <path fill-rule="evenodd" clip-rule="evenodd" d="M7.96875 1.0625C8.26215 1.0625 8.5 1.30035 8.5 1.59375V3.71875C8.5 4.01215 8.26215 4.25 7.96875 4.25C7.67535 4.25 7.4375 4.01215 7.4375 3.71875V1.59375C7.4375 1.30035 7.67535 1.0625 7.96875 1.0625Z" fill="#A3A3A3"/>
  <path fill-rule="evenodd" clip-rule="evenodd" d="M10.0938 1.0625C10.3872 1.0625 10.625 1.30035 10.625 1.59375V3.71875C10.625 4.01215 10.3872 4.25 10.0938 4.25C9.80035 4.25 9.5625 4.01215 9.5625 3.71875V1.59375C9.5625 1.30035 9.80035 1.0625 10.0938 1.0625Z" fill="#A3A3A3"/>
  <path fill-rule="evenodd" clip-rule="evenodd" d="M1.59375 14.3438C1.59375 14.0503 1.8316 13.8125 2.125 13.8125H13.8125C14.1059 13.8125 14.3438 14.0503 14.3438 14.3438C14.3438 14.6372 14.1059 14.875 13.8125 14.875H2.125C1.8316 14.875 1.59375 14.6372 1.59375 14.3438Z" fill="#A3A3A3"/>
  <path fill-rule="evenodd" clip-rule="evenodd" d="M1.59375 5.84375C1.59375 5.55035 1.8316 5.3125 2.125 5.3125H13.8125C14.1059 5.3125 14.3438 5.55035 14.3438 5.84375V9.03114C14.3438 9.03111 14.3438 9.03118 14.3438 9.03114C14.344 10.2515 13.9939 11.4464 13.3352 12.4737C12.6764 13.501 11.7366 14.3176 10.6274 14.8266C10.3607 14.949 10.0454 14.832 9.92301 14.5653C9.80065 14.2986 9.91764 13.9833 10.1843 13.8609C11.1086 13.4368 11.8918 12.7562 12.4408 11.9001C12.9898 11.044 13.2815 10.0484 13.2812 9.03136V6.375H2.65625V9.03125C2.65604 10.0482 2.94775 11.044 3.49672 11.9001C4.0457 12.7562 4.82886 13.4368 5.7532 13.8609C6.01986 13.9833 6.13685 14.2986 6.01449 14.5653C5.89212 14.832 5.57675 14.949 5.31009 14.8266C4.20089 14.3176 3.26109 13.501 2.60232 12.4737C1.94357 11.4464 1.59352 10.2516 1.59375 9.03125C1.59375 9.03121 1.59375 9.03129 1.59375 9.03125V5.84375Z" fill="#A3A3A3"/>
  <path fill-rule="evenodd" clip-rule="evenodd" d="M13.2812 5.84375C13.2812 5.55035 13.5191 5.3125 13.8125 5.3125C14.517 5.3125 15.1926 5.59235 15.6908 6.0905C16.1889 6.58864 16.4688 7.26427 16.4688 7.96875V8.5C16.4688 9.20448 16.1889 9.88011 15.6908 10.3783C15.1926 10.8764 14.517 11.1562 13.8125 11.1562H13.5867C13.2933 11.1562 13.0555 10.9184 13.0555 10.625C13.0555 10.3316 13.2933 10.0938 13.5867 10.0938H13.8125C14.2352 10.0938 14.6406 9.92584 14.9395 9.62695C15.2383 9.32806 15.4062 8.92269 15.4062 8.5V7.96875C15.4062 7.54606 15.2383 7.14068 14.9395 6.8418C14.6406 6.54291 14.2352 6.375 13.8125 6.375C13.5191 6.375 13.2812 6.13715 13.2812 5.84375Z" fill="#A3A3A3"/>
</svg>
