<svg width="14" height="14" viewBox="0 0 14 14" fill="none" xmlns="http://www.w3.org/2000/svg">
<path fill-rule="evenodd" clip-rule="evenodd" d="M0.125 0.75C0.125 0.404822 0.404822 0.125 0.75 0.125H5.75C6.09518 0.125 6.375 0.404822 6.375 0.75V5.75C6.375 6.09518 6.09518 6.375 5.75 6.375H0.75C0.404822 6.375 0.125 6.09518 0.125 5.75V0.75ZM1.375 1.375V5.125H5.125V1.375H1.375Z" fill="currentColor"/>
<path fill-rule="evenodd" clip-rule="evenodd" d="M7.625 0.75C7.625 0.404822 7.90482 0.125 8.25 0.125H13.25C13.5952 0.125 13.875 0.404822 13.875 0.75V5.75C13.875 6.09518 13.5952 6.375 13.25 6.375H8.25C7.90482 6.375 7.625 6.09518 7.625 5.75V0.75ZM8.875 1.375V5.125H12.625V1.375H8.875Z" fill="currentColor"/>
<path fill-rule="evenodd" clip-rule="evenodd" d="M0.125 8.25C0.125 7.90482 0.404822 7.625 0.75 7.625H5.75C6.09518 7.625 6.375 7.90482 6.375 8.25V13.25C6.375 13.5952 6.09518 13.875 5.75 13.875H0.75C0.404822 13.875 0.125 13.5952 0.125 13.25V8.25ZM1.375 8.875V12.625H5.125V8.875H1.375Z" fill="currentColor"/>
<path fill-rule="evenodd" clip-rule="evenodd" d="M7.625 8.25C7.625 7.90482 7.90482 7.625 8.25 7.625H13.25C13.5952 7.625 13.875 7.90482 13.875 8.25V13.25C13.875 13.5952 13.5952 13.875 13.25 13.875H8.25C7.90482 13.875 7.625 13.5952 7.625 13.25V8.25ZM8.875 8.875V12.625H12.625V8.875H8.875Z" fill="currentColor"/>
</svg>
