<svg xmlns="http://www.w3.org/2000/svg" width="14" height="14" viewBox="0 0 14 14" fill="none">
  <path fill-rule="evenodd" clip-rule="evenodd" d="M6.75735 1.38598C6.90431 1.28801 7.09576 1.28801 7.24272 1.38598L12.4927 4.88598C12.6144 4.96712 12.6875 5.10372 12.6875 5.25V10.9375C12.6875 11.1696 12.5953 11.3921 12.4313 11.5562C12.2672 11.7203 12.0446 11.8125 11.8125 11.8125H2.18753C1.95547 11.8125 1.73291 11.7203 1.56882 11.5562C1.40472 11.3921 1.31253 11.1696 1.31253 10.9375V5.25C1.31253 5.10372 1.38564 4.96712 1.50735 4.88598L6.75735 1.38598ZM2.18753 5.48414V10.9375H11.8125V5.48414L7.00003 2.27581L2.18753 5.48414Z" fill="#0D0E0D"/>
  <path fill-rule="evenodd" clip-rule="evenodd" d="M6.40031 8.06004C6.53974 8.25737 6.4928 8.53037 6.29547 8.66981L2.13922 11.6065C1.94188 11.746 1.66888 11.699 1.52945 11.5017C1.39001 11.3043 1.43695 11.0313 1.63429 10.8919L5.79054 7.95519C5.98787 7.81576 6.26088 7.8627 6.40031 8.06004Z" fill="#0D0E0D"/>
  <path fill-rule="evenodd" clip-rule="evenodd" d="M7.59976 8.06004C7.73919 7.8627 8.0122 7.81576 8.20953 7.95519L12.3658 10.8919C12.5631 11.0313 12.6101 11.3043 12.4706 11.5017C12.3312 11.699 12.0582 11.746 11.8609 11.6065L7.7046 8.66981C7.50727 8.53037 7.46033 8.25737 7.59976 8.06004Z" fill="#0D0E0D"/>
  <path fill-rule="evenodd" clip-rule="evenodd" d="M1.39387 4.99592C1.5342 4.79922 1.80741 4.75352 2.00411 4.89384L6.18306 7.875H7.81701L11.996 4.89384C12.1927 4.75352 12.4659 4.79922 12.6062 4.99592C12.7465 5.19263 12.7008 5.46584 12.5041 5.60616L8.21114 8.66866C8.13698 8.72156 8.04816 8.75 7.95707 8.75H6.043C5.95191 8.75 5.86308 8.72156 5.78893 8.66866L1.49596 5.60616C1.29925 5.46584 1.25355 5.19263 1.39387 4.99592Z" fill="#0D0E0D"/>
</svg>
