<svg xmlns="http://www.w3.org/2000/svg" width="14" height="14" viewBox="0 0 14 14" fill="none">
  <path fill-rule="evenodd" clip-rule="evenodd" d="M2.44378 1.56878C2.60788 1.40469 2.83044 1.3125 3.0625 1.3125H8.3125C8.42853 1.3125 8.53981 1.35859 8.62186 1.44064L11.6844 4.50314C11.7664 4.58519 11.8125 4.69647 11.8125 4.8125V11.8125C11.8125 12.0446 11.7203 12.2671 11.5562 12.4312C11.3921 12.5953 11.1696 12.6875 10.9375 12.6875H3.0625C2.83044 12.6875 2.60788 12.5953 2.44378 12.4312C2.27969 12.2671 2.1875 12.0446 2.1875 11.8125V2.1875C2.1875 1.95544 2.27969 1.73288 2.44378 1.56878ZM8.13128 2.1875L3.0625 2.1875L3.0625 11.8125H10.9375V4.99372L8.13128 2.1875Z" fill="#A3A3A3"/>
  <path fill-rule="evenodd" clip-rule="evenodd" d="M8.3125 1.3125C8.55412 1.3125 8.75 1.50838 8.75 1.75V4.375H11.375C11.6166 4.375 11.8125 4.57088 11.8125 4.8125C11.8125 5.05412 11.6166 5.25 11.375 5.25H8.3125C8.07088 5.25 7.875 5.05412 7.875 4.8125V1.75C7.875 1.50838 8.07088 1.3125 8.3125 1.3125Z" fill="#A3A3A3"/>
  <path fill-rule="evenodd" clip-rule="evenodd" d="M4.8125 7.4375C4.8125 7.19588 5.00838 7 5.25 7H8.75C8.99162 7 9.1875 7.19588 9.1875 7.4375C9.1875 7.67912 8.99162 7.875 8.75 7.875H5.25C5.00838 7.875 4.8125 7.67912 4.8125 7.4375Z" fill="#A3A3A3"/>
  <path fill-rule="evenodd" clip-rule="evenodd" d="M4.8125 9.1875C4.8125 8.94588 5.00838 8.75 5.25 8.75H8.75C8.99162 8.75 9.1875 8.94588 9.1875 9.1875C9.1875 9.42912 8.99162 9.625 8.75 9.625H5.25C5.00838 9.625 4.8125 9.42912 4.8125 9.1875Z" fill="#A3A3A3"/>
</svg>
