<svg xmlns="http://www.w3.org/2000/svg" width="14" height="14" viewBox="0 0 14 14" fill="none">
  <path fill-rule="evenodd" clip-rule="evenodd" d="M2.30235 2.1875C2.30231 2.1875 2.3024 2.1875 2.30235 2.1875H11.6977C11.8674 2.18755 12.0336 2.23697 12.1757 2.32972C12.3178 2.42248 12.4299 2.55457 12.4983 2.7099C12.5667 2.86524 12.5885 3.03711 12.5609 3.20458C12.5334 3.37173 12.458 3.5273 12.3438 3.6524C12.3436 3.65264 12.3433 3.65288 12.3431 3.65313L8.75001 7.60719V10.7007C8.75095 10.8462 8.71535 10.9897 8.64646 11.1179C8.57768 11.2459 8.47792 11.3546 8.35632 11.4341L6.60805 12.5978L6.60628 12.599C6.47499 12.6854 6.32283 12.7349 6.16579 12.7423C6.00875 12.7496 5.85264 12.7145 5.71387 12.6406C5.57509 12.5668 5.45878 12.4569 5.37716 12.3225C5.29554 12.1882 5.25162 12.0343 5.25003 11.8771L5.24999 11.8727L5.25001 7.60721L5.24885 7.60597L1.6569 3.65313C1.6567 3.65291 1.65651 3.6527 1.65631 3.65248C1.54208 3.52737 1.46662 3.37177 1.4391 3.20458C1.41154 3.03711 1.43328 2.86524 1.50168 2.7099C1.57007 2.55457 1.68217 2.42248 1.8243 2.32972C1.96635 2.23703 2.13227 2.18762 2.30188 2.1875M11.6975 3.0625H2.30249L2.30348 3.06358L5.89477 7.01564C6.04415 7.17686 6.12649 7.38895 6.12501 7.60875V11.8682L7.875 10.7034L7.87499 10.7023L7.87501 7.60875C7.87352 7.38895 7.95587 7.17686 8.10525 7.01564L11.6965 3.06359L11.6975 3.0625Z" fill="#6E6E6E"/>
</svg>
