<svg xmlns="http://www.w3.org/2000/svg" width="17" height="17" viewBox="0 0 17 17" fill="none">
  <path fill-rule="evenodd" clip-rule="evenodd" d="M5.84379 4.25C4.23009 4.25 2.92192 5.55817 2.92192 7.17188C2.92192 8.78559 4.23009 10.0938 5.84379 10.0938C7.4575 10.0938 8.76567 8.78559 8.76567 7.17188C8.76567 5.55817 7.4575 4.25 5.84379 4.25ZM1.85942 7.17188C1.85942 4.97137 3.64329 3.1875 5.84379 3.1875C8.0443 3.1875 9.82817 4.97137 9.82817 7.17188C9.82817 9.37239 8.0443 11.1563 5.84379 11.1563C3.64329 11.1563 1.85942 9.37239 1.85942 7.17188Z" fill="#A3A3A3"/>
  <path fill-rule="evenodd" clip-rule="evenodd" d="M11.2543 3.1875L11.2559 3.1875C12.3126 3.1875 13.3261 3.60728 14.0733 4.3545C14.8205 5.10171 15.2403 6.11516 15.2403 7.17188C15.2403 8.2286 14.8205 9.24204 14.0733 9.98926C13.3261 10.7365 12.3126 11.1563 11.2559 11.1563C10.9625 11.1563 10.7247 10.9184 10.7247 10.625C10.7247 10.3316 10.9625 10.0938 11.2559 10.0938C12.0308 10.0938 12.774 9.78591 13.322 9.23796C13.8699 8.69 14.1778 7.94681 14.1778 7.17188C14.1778 6.39695 13.8699 5.65376 13.322 5.1058C12.7742 4.55803 12.0313 4.25022 11.2567 4.25C10.9871 4.25089 10.7188 4.28708 10.4586 4.35765C10.1755 4.43445 9.88365 4.26716 9.80685 3.98398C9.73005 3.70081 9.89734 3.409 10.1805 3.3322C10.5306 3.23725 10.8916 3.18861 11.2543 3.1875Z" fill="#A3A3A3"/>
  <path fill-rule="evenodd" clip-rule="evenodd" d="M5.84379 11.1563C4.99127 11.1563 4.15127 11.3612 3.39474 11.7542C2.63821 12.1472 1.98737 12.7165 1.4972 13.414C1.32851 13.6541 0.997153 13.712 0.757097 13.5433C0.517042 13.3746 0.459192 13.0432 0.627886 12.8031C1.21609 11.9661 1.99709 11.283 2.90493 10.8113C3.81276 10.3397 4.82077 10.0938 5.84379 10.0938C6.86682 10.0938 7.87483 10.3397 8.78267 10.8113C9.6905 11.283 10.4715 11.9661 11.0597 12.8031C11.2284 13.0432 11.1705 13.3746 10.9305 13.5433C10.6904 13.712 10.3591 13.6541 10.1904 13.414C9.70022 12.7165 9.04938 12.1472 8.29285 11.7542C7.53632 11.3612 6.69632 11.1563 5.84379 11.1563Z" fill="#A3A3A3"/>
  <path fill-rule="evenodd" clip-rule="evenodd" d="M13.7053 11.7536C12.9488 11.3606 12.1084 11.1557 11.2559 11.1563C10.9625 11.1563 10.7247 10.9184 10.7247 10.625C10.7247 10.3316 10.9625 10.0938 11.2559 10.0938C12.2791 10.0931 13.2871 10.339 14.1951 10.8107C15.1031 11.2824 15.8841 11.9659 16.472 12.8034C16.6405 13.0435 16.5825 13.3749 16.3424 13.5434C16.1022 13.712 15.7709 13.654 15.6023 13.4138C15.1126 12.716 14.4619 12.1466 13.7053 11.7536Z" fill="#A3A3A3"/>
</svg>
