<svg width="14" height="18" viewBox="0 0 14 18" fill="none" xmlns="http://www.w3.org/2000/svg">
<path fill-rule="evenodd" clip-rule="evenodd" d="M3.25 0.875C3.25 0.529822 3.52982 0.25 3.875 0.25H11.375C11.7202 0.25 12 0.529822 12 0.875C12 1.22018 11.7202 1.5 11.375 1.5H9.07858L10.101 5.0783C10.1958 5.4102 10.0036 5.75612 9.6717 5.85095C9.3398 5.94578 8.99388 5.7536 8.89905 5.4217L7.77856 1.5H5.75V2.75004C6.78553 2.75004 7.625 3.5895 7.625 4.62504V8.375H10.75C11.5392 8.375 12.3168 8.62466 12.9082 9.09774C13.5032 9.57372 13.875 10.2531 13.875 11V16C13.875 16.3491 13.7007 16.6469 13.4574 16.8416C13.2177 17.0334 12.9169 17.125 12.625 17.125H1.375C1.08306 17.125 0.782348 17.0334 0.542624 16.8416C0.299281 16.6469 0.125 16.3491 0.125 16V11C0.125 10.2531 0.496825 9.57372 1.0918 9.09774C1.52561 8.75069 2.05966 8.52388 2.625 8.42766V4.62504C2.625 3.5895 3.46447 2.75004 4.5 2.75004V1.5H3.875C3.52982 1.5 3.25 1.22018 3.25 0.875ZM7 9.625H3.25L3.24922 9.625C2.71267 9.62517 2.21883 9.7969 1.87267 10.0738C1.52996 10.348 1.375 10.6861 1.375 11V15.875H12.625V11C12.625 10.6861 12.47 10.348 12.1273 10.0738C11.781 9.79677 11.2869 9.625 10.75 9.625L7 9.625ZM3.875 4.62504V8.375H6.375V4.62504C6.375 4.27986 6.09518 4.00004 5.75 4.00004H4.5C4.15482 4.00004 3.875 4.27986 3.875 4.62504Z" fill="#A3A3A3"/>
</svg>
