<svg xmlns="http://www.w3.org/2000/svg" width="14" height="14" viewBox="0 0 14 14" fill="none">
  <path fill-rule="evenodd" clip-rule="evenodd" d="M1.75 2.625C1.75 2.14175 2.14175 1.75 2.625 1.75H11.375C11.8582 1.75 12.25 2.14175 12.25 2.625V11.375C12.25 11.8582 11.8582 12.25 11.375 12.25H2.625C2.14175 12.25 1.75 11.8582 1.75 11.375V2.625ZM11.375 2.625H2.625V11.375H11.375V2.625Z" fill="#A3A3A3"/>
  <path fill-rule="evenodd" clip-rule="evenodd" d="M8.84956 5.93659C8.95659 5.89178 9.07147 5.8687 9.1875 5.8687C9.30353 5.8687 9.41841 5.89178 9.52544 5.93659C9.63185 5.98115 9.72839 6.0463 9.80951 6.12829L12.1219 8.44064C12.2927 8.6115 12.2927 8.88851 12.1219 9.05936C11.951 9.23021 11.674 9.23021 11.5031 9.05936L9.18749 6.74371L9.18515 6.74609L6.74706 9.18416C6.66592 9.26618 6.56937 9.33135 6.46294 9.37591C6.35591 9.42072 6.24104 9.4438 6.125 9.4438C6.00896 9.4438 5.89409 9.42072 5.78706 9.37591C5.68062 9.33134 5.58406 9.26617 5.50292 9.18414L4.37499 8.05621L4.37265 8.05859L2.49686 9.93436C2.326 10.1052 2.049 10.1052 1.87814 9.93436C1.70729 9.7635 1.70729 9.48649 1.87814 9.31564L3.75294 7.44084C3.83408 7.35882 3.93063 7.29365 4.03706 7.24909C4.14409 7.20428 4.25896 7.1812 4.375 7.1812C4.49104 7.1812 4.60591 7.20428 4.71294 7.24909C4.81937 7.29366 4.91593 7.35883 4.99707 7.44085L6.12501 8.56879L6.12735 8.56641L8.56545 6.12833C8.64658 6.04632 8.74314 5.98115 8.84956 5.93659Z" fill="#A3A3A3"/>
  <path d="M5.46875 5.6875C5.83119 5.6875 6.125 5.39369 6.125 5.03125C6.125 4.66881 5.83119 4.375 5.46875 4.375C5.10631 4.375 4.8125 4.66881 4.8125 5.03125C4.8125 5.39369 5.10631 5.6875 5.46875 5.6875Z" fill="#A3A3A3"/>
</svg>
