<svg xmlns="http://www.w3.org/2000/svg" width="14" height="15" viewBox="0 0 14 15" fill="none">
  <path fill-rule="evenodd" clip-rule="evenodd" d="M7 2.6875C4.34213 2.6875 2.1875 4.84213 2.1875 7.5C2.1875 10.1579 4.34213 12.3125 7 12.3125C9.65787 12.3125 11.8125 10.1579 11.8125 7.5C11.8125 4.84213 9.65787 2.6875 7 2.6875ZM1.3125 7.5C1.3125 4.35888 3.85888 1.8125 7 1.8125C10.1411 1.8125 12.6875 4.35888 12.6875 7.5C12.6875 10.6411 10.1411 13.1875 7 13.1875C3.85888 13.1875 1.3125 10.6411 1.3125 7.5Z" fill="#A3A3A3"/>
  <path fill-rule="evenodd" clip-rule="evenodd" d="M6.125 7.0625C6.125 6.82088 6.32088 6.625 6.5625 6.625H7C7.24162 6.625 7.4375 6.82088 7.4375 7.0625V9.6875C7.67912 9.6875 7.875 9.88338 7.875 10.125C7.875 10.3666 7.67912 10.5625 7.4375 10.5625H7C6.75838 10.5625 6.5625 10.3666 6.5625 10.125V7.5C6.32088 7.5 6.125 7.30412 6.125 7.0625Z" fill="#A3A3A3"/>
  <path d="M6.89062 5.75C7.25306 5.75 7.54688 5.45619 7.54688 5.09375C7.54688 4.73131 7.25306 4.4375 6.89062 4.4375C6.52819 4.4375 6.23438 4.73131 6.23438 5.09375C6.23438 5.45619 6.52819 5.75 6.89062 5.75Z" fill="#A3A3A3"/>
</svg>
