<svg width="18" height="18" viewBox="0 0 18 18" fill="none" xmlns="http://www.w3.org/2000/svg">
<path fill-rule="evenodd" clip-rule="evenodd" d="M9 0.02771C8.78469 0.02771 8.57315 0.0840276 8.38637 0.191038L4.96491 2.11561C4.9502 2.12313 4.93576 2.13125 4.92164 2.13994L1.5139 4.0568L1.51168 4.05806C1.345 4.15271 1.2025 4.28401 1.0947 4.44157C1.07465 4.46712 1.05634 4.49456 1.04003 4.52382C1.02922 4.54321 1.01956 4.56292 1.01102 4.58288C0.92278 4.75685 0.876051 4.9493 0.875 5.14506V12.8515L0.875009 12.8549C0.876197 13.0761 0.935679 13.293 1.04746 13.4838C1.15924 13.6747 1.31936 13.8327 1.51168 13.9419L1.5139 13.9431L8.38639 17.8089C8.57316 17.9159 8.7847 17.9722 9 17.9722C9.2153 17.9722 9.42684 17.9159 9.61361 17.8089L16.4861 13.9431L16.4883 13.9419C16.6806 13.8327 16.8408 13.6747 16.9525 13.4838C17.0643 13.293 17.1238 13.0761 17.125 12.8549L17.125 12.8515L17.125 5.14841L17.125 5.14506C17.1239 4.94939 17.0773 4.75704 16.9891 4.58313C16.9799 4.56156 16.9694 4.54029 16.9575 4.51941C16.9418 4.49177 16.9243 4.46579 16.9053 4.44153C16.7975 4.28398 16.655 4.1527 16.4883 4.05805L9.61363 0.191038C9.42685 0.0840278 9.21531 0.02771 9 0.02771ZM2.125 12.8485V5.84414L8.44221 9.36542L8.38316 16.3729L2.12871 12.8548C2.12762 12.8541 2.12671 12.8532 2.12606 12.8521C2.12542 12.851 2.12506 12.8498 2.125 12.8485ZM9.63328 16.3637L15.8711 12.8549C15.8721 12.8543 15.8733 12.8532 15.8739 12.8521C15.8746 12.851 15.8749 12.8498 15.875 12.8485V5.85317L13.4531 7.229V10.9141C13.4531 11.2592 13.1733 11.5391 12.8281 11.5391C12.4829 11.5391 12.2031 11.2592 12.2031 10.9141V7.93911L9.69226 9.36549L9.63328 16.3637ZM9.06741 8.28284L11.5609 6.86635L5.25341 3.38751L2.78057 4.77848L9.06741 8.28284ZM15.2278 4.7832L12.8358 6.14205L6.5348 2.66673L9 1.28006L15.2278 4.7832Z" fill="#A3A3A3"/>
</svg>
