<svg xmlns="http://www.w3.org/2000/svg" width="20" height="20" viewBox="0 0 20 20" fill="none">
  <path fill-rule="evenodd" clip-rule="evenodd" d="M10 1.02783C9.78469 1.02783 9.57315 1.08415 9.38637 1.19116L5.96491 3.11573C5.9502 3.12325 5.93576 3.13137 5.92164 3.14007L2.5139 5.05692L2.51168 5.05818C2.345 5.15284 2.2025 5.28413 2.0947 5.4417C2.07465 5.46724 2.05634 5.49468 2.04003 5.52394C2.02922 5.54333 2.01956 5.56304 2.01102 5.583C1.92278 5.75697 1.87605 5.94942 1.875 6.14518V13.8517L1.87501 13.855C1.8762 14.0762 1.93568 14.2931 2.04746 14.484C2.15924 14.6748 2.31936 14.8328 2.51168 14.942L2.5139 14.9433L9.38639 18.809C9.57316 18.916 9.7847 18.9724 10 18.9724C10.2153 18.9724 10.4268 18.916 10.6136 18.809L17.4861 14.9433L17.4883 14.942C17.6806 14.8328 17.8408 14.6748 17.9525 14.484C18.0643 14.2931 18.1238 14.0762 18.125 13.855L18.125 13.8517L18.125 6.14853L18.125 6.14518C18.1239 5.94951 18.0773 5.75716 17.9891 5.58326C17.9799 5.56169 17.9694 5.54041 17.9575 5.51953C17.9418 5.49189 17.9243 5.46591 17.9053 5.44165C17.7975 5.28411 17.655 5.15282 17.4883 5.05818L10.6136 1.19116C10.4268 1.08415 10.2153 1.02783 10 1.02783ZM3.125 13.8486V6.84426L9.44221 10.3655L9.38316 17.373L3.12871 13.8549C3.12762 13.8542 3.12671 13.8533 3.12606 13.8522C3.12542 13.8511 3.12506 13.8499 3.125 13.8486ZM10.6333 17.3638L16.8711 13.8551C16.8721 13.8544 16.8733 13.8533 16.8739 13.8522C16.8746 13.8511 16.8749 13.8499 16.875 13.8486V6.85329L14.4531 8.22912V11.9142C14.4531 12.2594 14.1733 12.5392 13.8281 12.5392C13.4829 12.5392 13.2031 12.2594 13.2031 11.9142V8.93923L10.6923 10.3656L10.6333 17.3638ZM10.0674 9.28296L12.5609 7.86648L6.25341 4.38763L3.78057 5.7786L10.0674 9.28296ZM16.2278 5.78333L13.8358 7.14217L7.5348 3.66685L10 2.28018L16.2278 5.78333Z" fill="currentColor"/>
</svg>
