<svg xmlns="http://www.w3.org/2000/svg" width="24" height="24" viewBox="0 0 24 24" fill="none">
  <path fill-rule="evenodd" clip-rule="evenodd" d="M13.8393 5.38078L11.996 7.22414C11.7031 7.51704 11.2282 7.51704 10.9353 7.22414C10.6424 6.93125 10.6424 6.45638 10.9353 6.16348L12.7915 4.30723C12.7997 4.29905 12.8081 4.29106 12.8167 4.28326C13.7451 3.43699 14.964 2.98102 16.2199 3.0101C17.4759 3.03918 18.6723 3.55106 19.5607 4.43939C20.449 5.32772 20.9609 6.52417 20.99 7.78012C21.019 9.03606 20.5631 10.2549 19.7168 11.1834C19.7087 11.1923 19.7004 11.201 19.6919 11.2095L17.0407 13.8513C17.0404 13.8516 17.04 13.8519 17.0397 13.8523C16.5879 14.3055 16.051 14.6652 15.4599 14.9107C14.8684 15.1564 14.2342 15.2828 13.5938 15.2828C12.9533 15.2828 12.3191 15.1564 11.7276 14.9107C11.136 14.665 10.5989 14.305 10.1468 13.8513C9.85446 13.5578 9.85535 13.083 10.1488 12.7906C10.4422 12.4983 10.9171 12.4992 11.2094 12.7926C11.5221 13.1065 11.8937 13.3555 12.3029 13.5254C12.712 13.6954 13.1507 13.7828 13.5938 13.7828C14.0368 13.7828 14.4755 13.6954 14.8846 13.5254C15.2938 13.3555 15.6654 13.1065 15.9781 12.7926L15.98 12.7907L18.6197 10.1603C19.1987 9.51854 19.5104 8.67937 19.4904 7.81483C19.4702 6.94459 19.1155 6.11557 18.5 5.50005C17.8845 4.88453 17.0555 4.52984 16.1852 4.5097C15.3205 4.48968 14.4811 4.80151 13.8393 5.38078Z" fill="#0D0E0D"/>
  <path fill-rule="evenodd" clip-rule="evenodd" d="M10.4063 10.2173C9.96321 10.2173 9.52453 10.3048 9.11538 10.4747C8.70622 10.6446 8.33464 10.8937 8.02195 11.2075L8.02002 11.2095L5.3803 13.8398C4.8013 14.4816 4.48962 15.3208 4.50964 16.1853C4.52978 17.0555 4.88447 17.8846 5.49999 18.5001C6.11551 19.1156 6.94453 19.4703 7.81477 19.4904C8.67952 19.5104 9.51889 19.1986 10.1607 18.6193L12.004 16.776C12.2969 16.4831 12.7718 16.4831 13.0647 16.776C13.3576 17.0689 13.3576 17.5437 13.0647 17.8366L11.2085 19.6929C11.2003 19.7011 11.1919 19.7091 11.1833 19.7169C10.2549 20.5631 9.036 21.0191 7.78006 20.99C6.52411 20.961 5.32766 20.4491 4.43933 19.5607C3.551 18.6724 3.03911 17.476 3.01004 16.22C2.98096 14.9641 3.43693 13.7452 4.2832 12.8167C4.29129 12.8078 4.2996 12.7992 4.30811 12.7907L6.95931 10.1489C6.95964 10.1485 6.95998 10.1482 6.96032 10.1478C7.41216 9.69457 7.94899 9.33489 8.54005 9.08942C9.13156 8.84376 9.76576 8.7173 10.4063 8.7173C11.0467 8.7173 11.6809 8.84376 12.2724 9.08942C12.864 9.33508 13.4011 9.69511 13.8532 10.1489C14.1455 10.4423 14.1447 10.9172 13.8512 11.2095C13.5578 11.5019 13.0829 11.501 12.7906 11.2075C12.4779 10.8937 12.1063 10.6446 11.6971 10.4747C11.288 10.3048 10.8493 10.2173 10.4063 10.2173Z" fill="#0D0E0D"/>
</svg>
