<svg width="160" height="32" viewBox="0 0 160 32" fill="none" xmlns="http://www.w3.org/2000/svg">
<rect x="23.6585" y="23" width="8" height="4" fill="#BCD9CA"/>
<rect x="23.6585" y="17" width="8" height="4" fill="#E7F68E"/>
<path d="M23.6585 11H31.6585V15H23.6585V11Z" fill="#E7F68E"/>
<path d="M23.6585 5H29.6585C30.7631 5 31.6585 5.89543 31.6585 7V9H23.6585V5Z" fill="#E7F68E"/>
<rect x="13.6585" y="23" width="8" height="4" fill="#BCD9CA"/>
<rect x="13.6585" y="17" width="8" height="4" fill="#BCD9CA"/>
<path d="M13.6585 11H21.6585V15H13.6585V11Z" fill="#BCD9CA"/>
<path d="M13.6585 7C13.6585 5.89543 14.5539 5 15.6585 5H21.6585V9H13.6585V7Z" fill="#BCD9CA"/>
<path d="M54.08 21.78V24H45.61V9.54H48.3V21.78H54.08ZM59.6233 13.58C60.3833 13.58 61.0733 13.7033 61.6933 13.95C62.3199 14.1967 62.8533 14.5467 63.2933 15C63.7399 15.4533 64.0833 16.0067 64.3233 16.66C64.5633 17.3133 64.6833 18.0433 64.6833 18.85C64.6833 19.6633 64.5633 20.3967 64.3233 21.05C64.0833 21.7033 63.7399 22.26 63.2933 22.72C62.8533 23.18 62.3199 23.5333 61.6933 23.78C61.0733 24.0267 60.3833 24.15 59.6233 24.15C58.8566 24.15 58.1599 24.0267 57.5333 23.78C56.9066 23.5333 56.3699 23.18 55.9233 22.72C55.4833 22.26 55.1399 21.7033 54.8933 21.05C54.6533 20.3967 54.5333 19.6633 54.5333 18.85C54.5333 18.0433 54.6533 17.3133 54.8933 16.66C55.1399 16.0067 55.4833 15.4533 55.9233 15C56.3699 14.5467 56.9066 14.1967 57.5333 13.95C58.1599 13.7033 58.8566 13.58 59.6233 13.58ZM59.6233 22.25C60.4766 22.25 61.1066 21.9633 61.5133 21.39C61.9266 20.8167 62.1333 19.9767 62.1333 18.87C62.1333 17.7633 61.9266 16.92 61.5133 16.34C61.1066 15.76 60.4766 15.47 59.6233 15.47C58.7566 15.47 58.1133 15.7633 57.6933 16.35C57.2799 16.93 57.0733 17.77 57.0733 18.87C57.0733 19.97 57.2799 20.81 57.6933 21.39C58.1133 21.9633 58.7566 22.25 59.6233 22.25ZM73.0077 16.36C72.7277 16.02 72.421 15.78 72.0877 15.64C71.761 15.5 71.4077 15.43 71.0277 15.43C70.6543 15.43 70.3177 15.5 70.0177 15.64C69.7177 15.78 69.461 15.9933 69.2477 16.28C69.0343 16.56 68.871 16.92 68.7577 17.36C68.6443 17.7933 68.5877 18.3067 68.5877 18.9C68.5877 19.5 68.6343 20.01 68.7277 20.43C68.8277 20.8433 68.9677 21.1833 69.1477 21.45C69.3277 21.71 69.5477 21.9 69.8077 22.02C70.0677 22.1333 70.3577 22.19 70.6777 22.19C71.191 22.19 71.6277 22.0833 71.9877 21.87C72.3477 21.6567 72.6877 21.3533 73.0077 20.96V16.36ZM75.4777 9.14V24H73.9677C73.641 24 73.4343 23.85 73.3477 23.55L73.1377 22.56C72.7243 23.0333 72.2477 23.4167 71.7077 23.71C71.1743 24.0033 70.551 24.15 69.8377 24.15C69.2777 24.15 68.7643 24.0333 68.2977 23.8C67.831 23.5667 67.4277 23.23 67.0877 22.79C66.7543 22.3433 66.4943 21.7933 66.3077 21.14C66.1277 20.4867 66.0377 19.74 66.0377 18.9C66.0377 18.14 66.141 17.4333 66.3477 16.78C66.5543 16.1267 66.851 15.56 67.2377 15.08C67.6243 14.6 68.0877 14.2267 68.6277 13.96C69.1677 13.6867 69.7743 13.55 70.4477 13.55C71.021 13.55 71.511 13.64 71.9177 13.82C72.3243 14 72.6877 14.2433 73.0077 14.55V9.14H75.4777ZM81.6653 18.62C81.972 18.62 82.2386 18.58 82.4653 18.5C82.692 18.4133 82.8786 18.2967 83.0253 18.15C83.1786 18.0033 83.292 17.8267 83.3653 17.62C83.4453 17.4133 83.4853 17.1867 83.4853 16.94C83.4853 16.4333 83.332 16.0333 83.0253 15.74C82.7253 15.44 82.272 15.29 81.6653 15.29C81.0586 15.29 80.602 15.44 80.2953 15.74C79.9953 16.0333 79.8453 16.4333 79.8453 16.94C79.8453 17.18 79.882 17.4033 79.9553 17.61C80.0353 17.8167 80.1486 17.9967 80.2953 18.15C80.4486 18.2967 80.6386 18.4133 80.8653 18.5C81.0986 18.58 81.3653 18.62 81.6653 18.62ZM84.4553 24.46C84.4553 24.26 84.3953 24.0967 84.2753 23.97C84.1553 23.8433 83.992 23.7467 83.7853 23.68C83.5786 23.6067 83.3353 23.5533 83.0553 23.52C82.782 23.4867 82.4886 23.4633 82.1753 23.45C81.8686 23.43 81.5486 23.4133 81.2153 23.4C80.8886 23.3867 80.5686 23.36 80.2553 23.32C79.982 23.4733 79.7586 23.6533 79.5853 23.86C79.4186 24.0667 79.3353 24.3067 79.3353 24.58C79.3353 24.76 79.3786 24.9267 79.4653 25.08C79.5586 25.24 79.702 25.3767 79.8953 25.49C80.0953 25.6033 80.352 25.69 80.6653 25.75C80.9786 25.8167 81.362 25.85 81.8153 25.85C82.2753 25.85 82.672 25.8133 83.0053 25.74C83.3386 25.6733 83.612 25.5767 83.8253 25.45C84.0453 25.33 84.2053 25.1833 84.3053 25.01C84.4053 24.8433 84.4553 24.66 84.4553 24.46ZM86.9153 14.09V15.01C86.9153 15.3033 86.7386 15.4833 86.3853 15.55L85.4653 15.72C85.6053 16.0733 85.6753 16.46 85.6753 16.88C85.6753 17.3867 85.572 17.8467 85.3653 18.26C85.1653 18.6667 84.8853 19.0133 84.5253 19.3C84.1653 19.5867 83.7386 19.81 83.2453 19.97C82.7586 20.1233 82.232 20.2 81.6653 20.2C81.4653 20.2 81.272 20.19 81.0853 20.17C80.8986 20.15 80.7153 20.1233 80.5353 20.09C80.2153 20.2833 80.0553 20.5 80.0553 20.74C80.0553 20.9467 80.1486 21.1 80.3353 21.2C80.5286 21.2933 80.782 21.36 81.0953 21.4C81.4086 21.44 81.7653 21.4667 82.1653 21.48C82.5653 21.4867 82.9753 21.5067 83.3953 21.54C83.8153 21.5733 84.2253 21.6333 84.6253 21.72C85.0253 21.8 85.382 21.93 85.6953 22.11C86.0086 22.29 86.2586 22.5367 86.4453 22.85C86.6386 23.1567 86.7353 23.5533 86.7353 24.04C86.7353 24.4933 86.622 24.9333 86.3953 25.36C86.1753 25.7867 85.852 26.1667 85.4253 26.5C85.0053 26.8333 84.4853 27.1 83.8653 27.3C83.252 27.5067 82.552 27.61 81.7653 27.61C80.992 27.61 80.3186 27.5333 79.7453 27.38C79.172 27.2333 78.6953 27.0333 78.3153 26.78C77.9353 26.5333 77.652 26.2467 77.4653 25.92C77.2786 25.5933 77.1853 25.2533 77.1853 24.9C77.1853 24.42 77.3286 24.02 77.6153 23.7C77.9086 23.3733 78.3086 23.1133 78.8153 22.92C78.542 22.78 78.3253 22.5933 78.1653 22.36C78.0053 22.1267 77.9253 21.82 77.9253 21.44C77.9253 21.2867 77.952 21.13 78.0053 20.97C78.0653 20.8033 78.1486 20.64 78.2553 20.48C78.3686 20.32 78.5086 20.17 78.6753 20.03C78.842 19.8833 79.0386 19.7533 79.2653 19.64C78.7453 19.36 78.3353 18.9867 78.0353 18.52C77.742 18.0533 77.5953 17.5067 77.5953 16.88C77.5953 16.3733 77.6953 15.9167 77.8953 15.51C78.102 15.0967 78.3853 14.7467 78.7453 14.46C79.112 14.1667 79.542 13.9433 80.0353 13.79C80.5353 13.6367 81.0786 13.56 81.6653 13.56C82.1053 13.56 82.5186 13.6067 82.9053 13.7C83.292 13.7867 83.6453 13.9167 83.9653 14.09H86.9153ZM91.0417 13.74V24H88.5617V13.74H91.0417ZM91.3817 10.75C91.3817 10.9633 91.3384 11.1633 91.2517 11.35C91.1651 11.5367 91.0484 11.7 90.9017 11.84C90.7617 11.98 90.5951 12.0933 90.4017 12.18C90.2084 12.26 90.0017 12.3 89.7817 12.3C89.5684 12.3 89.3651 12.26 89.1717 12.18C88.9851 12.0933 88.8217 11.98 88.6817 11.84C88.5417 11.7 88.4284 11.5367 88.3417 11.35C88.2617 11.1633 88.2217 10.9633 88.2217 10.75C88.2217 10.53 88.2617 10.3233 88.3417 10.13C88.4284 9.93667 88.5417 9.77 88.6817 9.63C88.8217 9.49 88.9851 9.38 89.1717 9.3C89.3651 9.21333 89.5684 9.17 89.7817 9.17C90.0017 9.17 90.2084 9.21333 90.4017 9.3C90.5951 9.38 90.7617 9.49 90.9017 9.63C91.0484 9.77 91.1651 9.93667 91.2517 10.13C91.3384 10.3233 91.3817 10.53 91.3817 10.75ZM94.2798 24V15.6L93.3898 15.46C93.1965 15.42 93.0398 15.3533 92.9198 15.26C92.8065 15.16 92.7498 15.02 92.7498 14.84V13.83H94.2798V13.07C94.2798 12.4833 94.3665 11.9567 94.5398 11.49C94.7198 11.0233 94.9732 10.6267 95.2998 10.3C95.6332 9.97333 96.0365 9.72333 96.5098 9.55C96.9832 9.37667 97.5165 9.29 98.1098 9.29C98.5832 9.29 99.0232 9.35333 99.4298 9.48L99.3798 10.72C99.3732 10.8133 99.3465 10.89 99.2998 10.95C99.2532 11.0033 99.1898 11.0467 99.1098 11.08C99.0365 11.1067 98.9498 11.1267 98.8498 11.14C98.7498 11.1467 98.6432 11.15 98.5298 11.15C98.2365 11.15 97.9732 11.1833 97.7398 11.25C97.5132 11.31 97.3198 11.42 97.1598 11.58C96.9998 11.7333 96.8765 11.94 96.7898 12.2C96.7098 12.4533 96.6698 12.77 96.6698 13.15V13.83H99.3398V15.59H96.7498V24H94.2798ZM110.048 13.74L104.458 26.82C104.384 26.9933 104.288 27.1233 104.168 27.21C104.054 27.3033 103.878 27.35 103.638 27.35H101.798L103.718 23.23L99.5678 13.74H101.738C101.931 13.74 102.081 13.7867 102.188 13.88C102.301 13.9733 102.384 14.08 102.438 14.2L104.618 19.52C104.691 19.7 104.751 19.88 104.798 20.06C104.851 20.24 104.901 20.4233 104.948 20.61C105.008 20.4233 105.068 20.24 105.128 20.06C105.188 19.8733 105.254 19.69 105.328 19.51L107.388 14.2C107.441 14.0667 107.528 13.9567 107.648 13.87C107.774 13.7833 107.914 13.74 108.068 13.74H110.048Z" fill="#0D0E0D"/>
</svg>
