<svg xmlns="http://www.w3.org/2000/svg" width="12" height="12" viewBox="0 0 12 12" fill="none">
  <path fill-rule="evenodd" clip-rule="evenodd" d="M6 3.375C6.20711 3.375 6.375 3.5429 6.375 3.75V6.375C6.375 6.58211 6.20711 6.75 6 6.75C5.79289 6.75 5.625 6.58211 5.625 6.375V3.75C5.625 3.5429 5.79289 3.375 6 3.375Z" fill="#6E6E6E"/>
  <path fill-rule="evenodd" clip-rule="evenodd" d="M7.71039 1.125C7.80814 1.12476 7.90497 1.14375 7.99539 1.18088C8.08605 1.21812 8.16847 1.27286 8.23795 1.34199L8.2386 1.34265L10.658 3.76206C10.7271 3.83153 10.7819 3.91395 10.8191 4.00461C10.8563 4.09505 10.8752 4.19191 10.875 4.28967L10.875 4.29038L10.875 4.28906V4.28967V7.6976C10.875 7.89651 10.796 8.08727 10.6553 8.22793L8.22792 10.6553C8.08727 10.796 7.89651 10.875 7.69759 10.875H4.28033C4.08142 10.875 3.89065 10.796 3.75 10.6553L1.34467 8.25C1.20402 8.10935 1.125 7.91858 1.125 7.71967V4.26311C1.125 4.06282 1.20511 3.87085 1.34749 3.72998L3.76103 1.34187C3.90145 1.20293 4.09101 1.125 4.28854 1.125H7.71039ZM7.7103 1.875L10.125 4.28971V7.6976L7.69759 10.125H4.28033L1.875 7.71967V4.26311L4.28854 1.875H7.7103Z" fill="#6E6E6E"/>
  <path d="M6 8.625C6.31066 8.625 6.5625 8.37316 6.5625 8.0625C6.5625 7.75184 6.31066 7.5 6 7.5C5.68934 7.5 5.4375 7.75184 5.4375 8.0625C5.4375 8.37316 5.68934 8.625 6 8.625Z" fill="#6E6E6E"/>
</svg>
