<svg xmlns="http://www.w3.org/2000/svg" width="15" height="15" viewBox="0 0 15 15" fill="none">
  <path fill-rule="evenodd" clip-rule="evenodd" d="M7.5 1.8125C5.32538 1.8125 3.5625 3.57538 3.5625 5.75C3.5625 7.92462 5.32538 9.6875 7.5 9.6875C9.67462 9.6875 11.4375 7.92462 11.4375 5.75C11.4375 3.57538 9.67462 1.8125 7.5 1.8125ZM2.6875 5.75C2.6875 3.09213 4.84213 0.9375 7.5 0.9375C10.1579 0.9375 12.3125 3.09213 12.3125 5.75C12.3125 8.40787 10.1579 10.5625 7.5 10.5625C4.84213 10.5625 2.6875 8.40787 2.6875 5.75Z" fill="#0D0E0D"/>
  <path fill-rule="evenodd" clip-rule="evenodd" d="M7.5 3.5625C6.29188 3.5625 5.3125 4.54188 5.3125 5.75C5.3125 6.95812 6.29188 7.9375 7.5 7.9375C8.70812 7.9375 9.6875 6.95812 9.6875 5.75C9.6875 4.54188 8.70812 3.5625 7.5 3.5625ZM4.4375 5.75C4.4375 4.05863 5.80863 2.6875 7.5 2.6875C9.19137 2.6875 10.5625 4.05863 10.5625 5.75C10.5625 7.44137 9.19137 8.8125 7.5 8.8125C5.80863 8.8125 4.4375 7.44137 4.4375 5.75Z" fill="#0D0E0D"/>
  <path fill-rule="evenodd" clip-rule="evenodd" d="M4.875 8.8125C5.11662 8.8125 5.3125 9.00838 5.3125 9.25V12.9171L7.30434 11.9212C7.42751 11.8596 7.57249 11.8596 7.69566 11.9212L9.6875 12.9171V9.25C9.6875 9.00838 9.88338 8.8125 10.125 8.8125C10.3666 8.8125 10.5625 9.00838 10.5625 9.25V13.625C10.5625 13.7766 10.484 13.9174 10.355 13.9972C10.226 14.0769 10.065 14.0841 9.92934 14.0163L7.5 12.8016L5.07066 14.0163C4.93504 14.0841 4.77397 14.0769 4.64499 13.9972C4.51601 13.9174 4.4375 13.7766 4.4375 13.625V9.25C4.4375 9.00838 4.63338 8.8125 4.875 8.8125Z" fill="#0D0E0D"/>
</svg>
