<svg width="18" height="16" viewBox="0 0 18 16" fill="none" xmlns="http://www.w3.org/2000/svg">
<path fill-rule="evenodd" clip-rule="evenodd" d="M1.24114 1.11612C1.47556 0.881696 1.7935 0.75 2.12502 0.75H15.875C16.2065 0.75 16.5245 0.881696 16.7589 1.11612C16.9933 1.35054 17.125 1.66848 17.125 2V12C17.125 12.3315 16.9933 12.6495 16.7589 12.8839C16.5245 13.1183 16.2065 13.25 15.875 13.25H5.48944L5.40829 13.2785L2.92192 15.3643C2.73982 15.515 2.5187 15.611 2.28425 15.6411C2.0498 15.6712 1.81162 15.6342 1.59734 15.5345C1.38306 15.4347 1.20146 15.2762 1.07361 15.0774C0.945767 14.8786 0.876912 14.6476 0.875039 14.4112L0.875 14.4062L0.87502 2C0.87502 1.66848 1.00672 1.35054 1.24114 1.11612ZM15.875 2L2.12502 2V14.4013L4.69208 12.2477C4.74972 12.1994 4.81561 12.1618 4.88659 12.1369L5.17565 12.0353C5.24222 12.0119 5.31227 12 5.38283 12H15.875V2Z" fill="currentColor"/>
<path fill-rule="evenodd" clip-rule="evenodd" d="M5.87502 5.75C5.87502 5.40482 6.15484 5.125 6.50002 5.125H11.5C11.8452 5.125 12.125 5.40482 12.125 5.75C12.125 6.09518 11.8452 6.375 11.5 6.375H6.50002C6.15484 6.375 5.87502 6.09518 5.87502 5.75Z" fill="currentColor"/>
<path fill-rule="evenodd" clip-rule="evenodd" d="M5.87502 8.25C5.87502 7.90482 6.15484 7.625 6.50002 7.625H11.5C11.8452 7.625 12.125 7.90482 12.125 8.25C12.125 8.59518 11.8452 8.875 11.5 8.875H6.50002C6.15484 8.875 5.87502 8.59518 5.87502 8.25Z" fill="currentColor"/>
</svg>
