<svg xmlns="http://www.w3.org/2000/svg" width="17" height="17" viewBox="0 0 17 17" fill="none">
  <path fill-rule="evenodd" clip-rule="evenodd" d="M13.8125 12.2188C14.1059 12.2188 14.3438 11.9809 14.3438 11.6875V4.25C14.3438 3.9566 14.1059 3.71875 13.8125 3.71875H3.1875C2.8941 3.71875 2.65625 3.9566 2.65625 4.25V11.6875C2.65625 11.9809 2.8941 12.2188 3.1875 12.2188H13.8125ZM15.4062 11.6875C15.4062 12.5677 14.6927 13.2812 13.8125 13.2812H3.1875C2.3073 13.2812 1.59375 12.5677 1.59375 11.6875V4.25C1.59375 3.3698 2.3073 2.65625 3.1875 2.65625H13.8125C14.6927 2.65625 15.4062 3.3698 15.4062 4.25V11.6875Z" fill="#A3A3A3"/>
  <path fill-rule="evenodd" clip-rule="evenodd" d="M5.84375 14.875C5.84375 14.5816 6.0816 14.3438 6.375 14.3438H10.625C10.9184 14.3438 11.1562 14.5816 11.1562 14.875C11.1562 15.1684 10.9184 15.4062 10.625 15.4062H6.375C6.0816 15.4062 5.84375 15.1684 5.84375 14.875Z" fill="#A3A3A3"/>
</svg>
