<svg xmlns="http://www.w3.org/2000/svg" width="21" height="20" viewBox="0 0 21 20" fill="none">
  <path fill-rule="evenodd" clip-rule="evenodd" d="M15.0581 2.05806C15.3021 1.81398 15.6979 1.81398 15.9419 2.05806L18.4419 4.55806C18.686 4.80214 18.686 5.19786 18.4419 5.44194L10.9419 12.9419C10.8247 13.0592 10.6658 13.125 10.5 13.125H8C7.65482 13.125 7.375 12.8452 7.375 12.5V10C7.375 9.83424 7.44085 9.67527 7.55806 9.55806L15.0581 2.05806ZM8.625 10.2589V11.875H10.2411L17.1161 5L15.5 3.38388L8.625 10.2589Z" fill="#A3A3A3"/>
  <path fill-rule="evenodd" clip-rule="evenodd" d="M13.1831 3.93306C13.4271 3.68898 13.8229 3.68898 14.0669 3.93306L16.5669 6.43306C16.811 6.67714 16.811 7.07286 16.5669 7.31694C16.3229 7.56102 15.9271 7.56102 15.6831 7.31694L13.1831 4.81694C12.939 4.57286 12.939 4.17714 13.1831 3.93306Z" fill="#A3A3A3"/>
  <path fill-rule="evenodd" clip-rule="evenodd" d="M3.36612 2.86612C3.60054 2.6317 3.91848 2.5 4.25 2.5H11.125C11.4702 2.5 11.75 2.77982 11.75 3.125C11.75 3.47018 11.4702 3.75 11.125 3.75L4.25 3.75L4.25 16.25H16.75V9.375C16.75 9.02982 17.0298 8.75 17.375 8.75C17.7202 8.75 18 9.02982 18 9.375V16.25C18 16.5815 17.8683 16.8995 17.6339 17.1339C17.3995 17.3683 17.0815 17.5 16.75 17.5H4.25C3.91848 17.5 3.60054 17.3683 3.36612 17.1339C3.1317 16.8995 3 16.5815 3 16.25V3.75C3 3.41848 3.1317 3.10054 3.36612 2.86612Z" fill="#A3A3A3"/>
</svg>
