<svg xmlns="http://www.w3.org/2000/svg" width="14" height="14" viewBox="0 0 14 14" fill="none">
  <path fill-rule="evenodd" clip-rule="evenodd" d="M4.53277 2.21174C4.51706 2.21075 4.49001 2.21155 4.44784 2.21868C3.95392 2.30215 3.50259 2.55289 3.17045 2.93022C2.90019 3.23724 2.72307 3.6119 2.6556 4.01051C2.6161 4.24386 2.62018 4.49787 2.63681 4.78291C2.73643 6.49066 3.4589 8.10846 4.67518 9.32474C5.93933 10.5889 7.63721 11.3196 9.41903 11.372C9.62783 11.3781 9.81624 11.3736 9.98941 11.3443C10.388 11.2768 10.7627 11.0997 11.0697 10.8295C11.468 10.4789 11.7252 9.99555 11.7936 9.46948L11.7929 9.46919L11.7929 9.46917L9.23364 8.37L9.23357 8.37005L9.23357 8.37004L7.86816 9.28212C7.86779 9.28238 7.86741 9.28263 7.86703 9.28289C7.74136 9.36744 7.59588 9.41793 7.44483 9.42941C7.29332 9.44091 7.14143 9.41277 7.0041 9.34774L7.00167 9.34658C5.98174 8.85592 5.15804 8.03433 4.66476 7.01567L4.66388 7.01385L4.66388 7.01385C4.59927 6.87884 4.57037 6.72952 4.57995 6.58015C4.58952 6.43079 4.63725 6.28638 4.71857 6.16072L4.72029 6.15807L4.7203 6.15807L5.63066 4.77346L5.62983 4.77155L5.62983 4.77155L4.53277 2.21174ZM11.7941 9.46534L11.7941 9.46548L11.7941 9.46534ZM4.30203 1.35591C4.49565 1.32319 4.8203 1.30441 5.09452 1.53572C5.19916 1.62399 5.28206 1.73622 5.33561 1.86377L6.43324 4.42492C6.4334 4.42529 6.43356 4.42565 6.43372 4.42602C6.49055 4.55735 6.5143 4.70062 6.50289 4.84327C6.49144 4.98633 6.44499 5.12437 6.36762 5.24523L6.36474 5.24973L6.36471 5.24972L5.45317 6.63614C5.85999 7.47521 6.53853 8.15211 7.37857 8.55691L7.38034 8.55572L7.38035 8.55572L8.74646 7.64316C8.86769 7.5613 9.00763 7.51134 9.15331 7.49792C9.29899 7.4845 9.4457 7.50806 9.57984 7.5664C9.58039 7.56664 9.58094 7.56688 9.58148 7.56712L12.1364 8.66439C12.3112 8.73786 12.4573 8.86649 12.5523 9.03073C12.6477 9.19576 12.6863 9.38759 12.662 9.57668C12.5674 10.3153 12.2068 10.9942 11.6478 11.4863C11.218 11.8646 10.6935 12.1126 10.1354 12.207C9.87885 12.2505 9.62409 12.2534 9.39333 12.2466C7.38874 12.1877 5.47863 11.3656 4.05646 9.94345C2.68814 8.57513 1.87536 6.75512 1.7633 4.83386C1.74605 4.53823 1.7359 4.20107 1.79287 3.86448C1.88732 3.30646 2.13528 2.78193 2.51365 2.35208C2.97866 1.82381 3.61052 1.47278 4.30203 1.35591Z" fill="#0D0E0D"/>
</svg>
