<svg xmlns="http://www.w3.org/2000/svg" width="17" height="16" viewBox="0 0 17 16" fill="none">
  <path fill-rule="evenodd" clip-rule="evenodd" d="M8.66663 2.5C11.7042 2.5 14.1666 4.96243 14.1666 8C14.1666 11.0376 11.7042 13.5 8.66663 13.5C5.62906 13.5 3.16663 11.0376 3.16663 8V7.00037C3.16663 6.72422 2.94277 6.5 2.66663 6.5C2.39048 6.5 2.16663 6.72386 2.16663 7V8C2.16663 11.5899 5.07677 14.5 8.66663 14.5C12.2565 14.5 15.1666 11.5899 15.1666 8C15.1666 4.41015 12.2565 1.5 8.66663 1.5L7.6671 1.5L7.66663 2L7.66663 2.5L8.66663 2.5ZM7.16663 2C7.16663 2.27614 7.39049 2.5 7.66663 2.5L7.66663 2L7.6671 1.5C7.39096 1.5 7.16663 1.72386 7.16663 2Z" fill="#0D0E0D"/>
  <path fill-rule="evenodd" clip-rule="evenodd" d="M2.66663 4C2.39048 4 2.16663 4.22386 2.16663 4.5C2.16663 4.77614 2.39048 5 2.66663 5H5.16663C5.44277 5 5.66663 4.77614 5.66663 4.5V2C5.66663 1.72386 5.44277 1.5 5.16663 1.5C4.89048 1.5 4.66663 1.72386 4.66663 2V3.29289L3.02018 1.64645C2.82492 1.45118 2.50833 1.45118 2.31307 1.64645C2.11781 1.84171 2.11781 2.15829 2.31307 2.35355L3.95952 4H2.66663Z" fill="#0D0E0D"/>
  <path d="M8.66663 4C8.94277 4 9.16663 4.22386 9.16663 4.5V5H10.1666C10.4428 5 10.6666 5.22386 10.6666 5.5C10.6666 5.77614 10.4428 6 10.1666 6H7.91663C7.71771 6 7.52695 6.07902 7.3863 6.21967C7.24564 6.36032 7.16663 6.55109 7.16663 6.75C7.16663 6.94891 7.24564 7.13968 7.3863 7.28033C7.52695 7.42098 7.71771 7.5 7.91663 7.5H9.41663C9.88075 7.5 10.3259 7.68437 10.6541 8.01256C10.9823 8.34075 11.1666 8.78587 11.1666 9.25C11.1666 9.71413 10.9823 10.1592 10.6541 10.4874C10.3259 10.8156 9.88075 11 9.41663 11H9.16663V11.5C9.16663 11.7761 8.94277 12 8.66663 12C8.39048 12 8.16663 11.7761 8.16663 11.5V11H7.16663C6.89048 11 6.66663 10.7761 6.66663 10.5C6.66663 10.2239 6.89048 10 7.16663 10H9.41663C9.61554 10 9.8063 9.92098 9.94696 9.78033C10.0876 9.63968 10.1666 9.44891 10.1666 9.25C10.1666 9.05109 10.0876 8.86032 9.94696 8.71967C9.8063 8.57902 9.61554 8.5 9.41663 8.5H7.91663C7.4525 8.5 7.00738 8.31563 6.67919 7.98744C6.351 7.65925 6.16663 7.21413 6.16663 6.75C6.16663 6.28587 6.351 5.84075 6.67919 5.51256C7.00738 5.18437 7.4525 5 7.91663 5H8.16663V4.5C8.16663 4.22386 8.39048 4 8.66663 4Z" fill="#0D0E0D"/>
</svg>
