<svg width="16" height="17" viewBox="0 0 16 17" fill="none" xmlns="http://www.w3.org/2000/svg">
<path fill-rule="evenodd" clip-rule="evenodd" d="M12.375 0.875C12.375 0.529822 12.0952 0.25 11.75 0.25C11.4048 0.25 11.125 0.529822 11.125 0.875V1.5H4.875V0.875C4.875 0.529822 4.59518 0.25 4.25 0.25C3.90482 0.25 3.625 0.529822 3.625 0.875V1.5H1.75C1.05964 1.5 0.5 2.05964 0.5 2.75V15.25C0.5 15.9404 1.05964 16.5 1.75 16.5H14.25C14.9404 16.5 15.5 15.9404 15.5 15.25V2.75C15.5 2.05964 14.9404 1.5 14.25 1.5H12.375V0.875ZM14.25 5.25V2.75H12.375V3.375C12.375 3.72018 12.0952 4 11.75 4C11.4048 4 11.125 3.72018 11.125 3.375V2.75H4.875V3.375C4.875 3.72018 4.59518 4 4.25 4C3.90482 4 3.625 3.72018 3.625 3.375V2.75H1.75V5.25H14.25ZM1.75 6.5H14.25V15.25H1.75V6.5Z" fill="currentColor"/>
<path fill-rule="evenodd" clip-rule="evenodd" d="M11.2674 8.5714C11.5041 8.82264 11.4923 9.21819 11.2411 9.4549L7.59266 12.8924C7.35134 13.1198 6.97447 13.1191 6.73392 12.8909L4.75736 11.0159C4.50693 10.7784 4.4965 10.3828 4.73406 10.1324C4.97162 9.88193 5.36721 9.8715 5.61764 10.1091L7.16552 11.5774L10.3839 8.5451C10.6351 8.3084 11.0307 8.32017 11.2674 8.5714Z" fill="currentColor"/>
</svg>
