<svg width="16" height="17" viewBox="0 0 16 17" fill="none" xmlns="http://www.w3.org/2000/svg">
  <path fill-rule="evenodd" clip-rule="evenodd" d="M12.375 0.875C12.375 0.529822 12.0952 0.25 11.75 0.25C11.4048 0.25 11.125 0.529822 11.125 0.875V1.5H4.875V0.875C4.875 0.529822 4.59518 0.25 4.25 0.25C3.90482 0.25 3.625 0.529822 3.625 0.875V1.5H1.75C1.05964 1.5 0.5 2.05964 0.5 2.75V15.25C0.5 15.9404 1.05964 16.5 1.75 16.5H14.25C14.9404 16.5 15.5 15.9404 15.5 15.25V2.75C15.5 2.05964 14.9404 1.5 14.25 1.5H12.375V0.875ZM14.25 5.25V2.75H12.375V3.375C12.375 3.72018 12.0952 4 11.75 4C11.4048 4 11.125 3.72018 11.125 3.375V2.75H4.875V3.375C4.875 3.72018 4.59518 4 4.25 4C3.90482 4 3.625 3.72018 3.625 3.375V2.75H1.75V5.25H14.25ZM1.75 6.5H14.25V15.25H1.75V6.5Z" fill="currentColor"/>
  <path fill-rule="evenodd" clip-rule="evenodd" d="M4.5625 9C4.5625 8.65482 4.84232 8.375 5.1875 8.375H7.375C7.61525 8.375 7.83424 8.51272 7.93831 8.72926C8.04239 8.9458 8.01313 9.20283 7.86304 9.39043L7.17128 10.2551C7.37396 10.391 7.54868 10.5655 7.68512 10.7693C7.85681 11.0257 7.96256 11.3205 7.993 11.6276C8.02343 11.9346 7.97761 12.2445 7.85959 12.5296C7.74158 12.8147 7.55502 13.0663 7.31646 13.262C7.07791 13.4578 6.79473 13.5916 6.49205 13.6516C6.18938 13.7117 5.87656 13.6961 5.58134 13.6063C5.28613 13.5165 5.01764 13.3552 4.79971 13.1367C4.55593 12.8923 4.55641 12.4966 4.80078 12.2528C5.04515 12.0091 5.44088 12.0095 5.68466 12.2539C5.75731 12.3267 5.8468 12.3805 5.94521 12.4104C6.04361 12.4404 6.14788 12.4456 6.24878 12.4255C6.34967 12.4055 6.44406 12.3609 6.52358 12.2957C6.6031 12.2304 6.66529 12.1466 6.70462 12.0515C6.74396 11.9565 6.75924 11.8532 6.74909 11.7509C6.73895 11.6485 6.7037 11.5502 6.64647 11.4648C6.58924 11.3793 6.5118 11.3093 6.42102 11.2609C6.33024 11.2125 6.22893 11.1873 6.12607 11.1875C5.88562 11.1879 5.66626 11.0504 5.56192 10.8337C5.45757 10.6171 5.48675 10.3598 5.63696 10.1721L6.07461 9.625H5.1875C4.84232 9.625 4.5625 9.34518 4.5625 9Z" fill="currentColor"/>
  <path fill-rule="evenodd" clip-rule="evenodd" d="M10.7795 8.44098C10.9912 8.54685 11.125 8.76327 11.125 9V13.0625C11.125 13.4077 10.8452 13.6875 10.5 13.6875C10.1548 13.6875 9.875 13.4077 9.875 13.0625V10.25L9.625 10.4375C9.34886 10.6446 8.95711 10.5886 8.75 10.3125C8.54289 10.0364 8.59886 9.64461 8.875 9.4375L10.125 8.5C10.3144 8.35796 10.5678 8.33511 10.7795 8.44098Z" fill="currentColor"/>
</svg>
