<svg width="20" height="16" viewBox="0 0 20 16" fill="none" xmlns="http://www.w3.org/2000/svg">
<path fill-rule="evenodd" clip-rule="evenodd" d="M9.15657 0.421362C9.38566 0.211295 9.68521 0.0947266 9.99609 0.0947266C10.3069 0.0947266 10.6064 0.211246 10.8355 0.421232L10.8373 0.422931L17.0919 6.09968L17.101 6.1081C17.2245 6.22474 17.3234 6.36493 17.392 6.52039C17.4605 6.67585 17.4972 6.84344 17.4999 7.01331L17.5 7.02342V14.25H18.75C19.0952 14.25 19.375 14.5298 19.375 14.875C19.375 15.2202 19.0952 15.5 18.75 15.5H1.25C0.904822 15.5 0.625 15.2202 0.625 14.875C0.625 14.5298 0.904822 14.25 1.25 14.25H2.5L2.50001 7.02644C2.50001 6.67788 2.64347 6.34311 2.90663 6.10383C3.8883 5.21119 8.15351 1.3329 9.15657 0.421362ZM8.75 14.25H11.25V10.5H8.75V14.25ZM12.5 14.25V10.5C12.5 10.1685 12.3683 9.85054 12.1339 9.61612C11.8995 9.38169 11.5815 9.25 11.25 9.25H8.75C8.41848 9.25 8.10054 9.38169 7.86612 9.61612C7.6317 9.85054 7.5 10.1685 7.5 10.5V14.25H3.75L3.75001 7.02644C4.73604 6.12985 8.99194 2.26002 9.9961 1.34749L16.2441 7.01829C16.2458 7.02012 16.2471 7.0222 16.2481 7.02446C16.2491 7.02683 16.2498 7.02935 16.25 7.03192V14.25H12.5Z" fill="#A3A3A3"/>
</svg>
