<svg xmlns="http://www.w3.org/2000/svg" width="17" height="17" viewBox="0 0 17 17" fill="none">
  <path fill-rule="evenodd" clip-rule="evenodd" d="M9.5625 4.78125C9.5625 4.48785 9.80035 4.25 10.0938 4.25H11.9531C12.3932 4.25 12.75 4.60677 12.75 5.04688V6.90625C12.75 7.19965 12.5122 7.4375 12.2188 7.4375C11.9253 7.4375 11.6875 7.19965 11.6875 6.90625V5.3125H10.0938C9.80035 5.3125 9.5625 5.07465 9.5625 4.78125Z" fill="#A3A3A3"/>
  <path fill-rule="evenodd" clip-rule="evenodd" d="M7.4375 12.2188C7.4375 12.5122 7.19965 12.75 6.90625 12.75H5.04688C4.60677 12.75 4.25 12.3932 4.25 11.9531V10.0938C4.25 9.80035 4.48785 9.5625 4.78125 9.5625C5.07465 9.5625 5.3125 9.80035 5.3125 10.0938V11.6875H6.90625C7.19965 11.6875 7.4375 11.9253 7.4375 12.2188Z" fill="#A3A3A3"/>
  <path fill-rule="evenodd" clip-rule="evenodd" d="M2.125 3.1875C2.125 2.6007 2.6007 2.125 3.1875 2.125H13.8125C14.3993 2.125 14.875 2.6007 14.875 3.1875V13.8125C14.875 14.3993 14.3993 14.875 13.8125 14.875H3.1875C2.6007 14.875 2.125 14.3993 2.125 13.8125V3.1875ZM13.8125 3.1875L3.1875 3.1875V13.8125H13.8125V3.1875Z" fill="#A3A3A3"/>
</svg>
