<svg xmlns="http://www.w3.org/2000/svg" width="14" height="14" viewBox="0 0 14 14" fill="none">
  <path fill-rule="evenodd" clip-rule="evenodd" d="M8.07294 3.13879L6.99765 4.21408C6.82679 4.38494 6.54978 4.38494 6.37893 4.21408C6.20807 4.04323 6.20807 3.76622 6.37893 3.59537L7.46174 2.51255C7.46652 2.50778 7.4714 2.50312 7.47639 2.49857C8.01801 2.00491 8.72901 1.73893 9.46164 1.75589C10.1943 1.77285 10.8922 2.07145 11.4104 2.58964C11.9286 3.10784 12.2272 3.80577 12.2442 4.5384C12.2611 5.27104 11.9951 5.98204 11.5015 6.52365C11.4968 6.52884 11.4919 6.5339 11.4869 6.53885L9.94041 8.07991C9.94022 8.0801 9.94003 8.08029 9.93985 8.08048C9.67627 8.3449 9.36311 8.55471 9.01831 8.69791C8.67326 8.84122 8.30332 8.91498 7.92969 8.91498C7.55607 8.91498 7.18613 8.84122 6.84108 8.69791C6.49603 8.55461 6.18267 8.3446 5.91898 8.07991C5.74844 7.90874 5.74896 7.63173 5.92013 7.46119C6.09131 7.29066 6.36832 7.29118 6.53885 7.46235C6.72125 7.64544 6.93801 7.79071 7.17668 7.88983C7.41536 7.98896 7.67125 8.03998 7.92969 8.03998C8.18813 8.03998 8.44403 7.98896 8.68271 7.88983C8.92138 7.79071 9.13814 7.64544 9.32054 7.46235L9.32166 7.46123L10.8615 5.92683C11.1993 5.55248 11.3811 5.06296 11.3694 4.55865C11.3576 4.05101 11.1507 3.56742 10.7917 3.20836C10.4326 2.84931 9.94903 2.64241 9.44139 2.63066C8.93696 2.61898 8.44732 2.80088 8.07294 3.13879Z" fill="#A3A3A3"/>
  <path fill-rule="evenodd" clip-rule="evenodd" d="M6.07032 5.96009C5.81188 5.96009 5.55598 6.01112 5.31731 6.11024C5.07863 6.20937 4.86188 6.35464 4.67948 6.53772L4.67835 6.53885L3.13851 8.07325C2.80076 8.44759 2.61895 8.93711 2.63063 9.44142C2.64238 9.94906 2.84928 10.4327 3.20833 10.7917C3.56739 11.1508 4.05098 11.3577 4.55862 11.3694C5.06306 11.3811 5.55269 11.1992 5.92707 10.8613L7.00237 9.78599C7.17322 9.61514 7.45023 9.61514 7.62108 9.78599C7.79194 9.95685 7.79194 10.2339 7.62108 10.4047L6.53827 11.4875C6.5335 11.4923 6.52861 11.497 6.52362 11.5015C5.98201 11.9952 5.27101 12.2611 4.53837 12.2442C3.80574 12.2272 3.10781 11.9286 2.58961 11.4104C2.07142 10.8922 1.77282 10.1943 1.75586 9.46167C1.7389 8.72904 2.00488 8.01804 2.49854 7.47642C2.50326 7.47124 2.5081 7.46617 2.51307 7.46123L4.0596 5.92016C4.0598 5.91997 4.06 5.91977 4.06019 5.91957C4.32377 5.65516 4.63691 5.44536 4.9817 5.30216C5.32675 5.15886 5.6967 5.08509 6.07032 5.08509C6.44394 5.08509 6.81389 5.15886 7.15893 5.30216C7.50398 5.44546 7.81734 5.65548 8.08104 5.92016C8.25157 6.09134 8.25105 6.36835 8.07988 6.53888C7.90871 6.70942 7.6317 6.7089 7.46116 6.53772C7.27876 6.35464 7.06201 6.20937 6.82333 6.11024C6.58466 6.01112 6.32876 5.96009 6.07032 5.96009Z" fill="#A3A3A3"/>
</svg>
