<svg xmlns="http://www.w3.org/2000/svg" width="17" height="17" viewBox="0 0 17 17" fill="none">
  <path fill-rule="evenodd" clip-rule="evenodd" d="M8.50023 3.71875C8.79363 3.71875 9.03148 3.9566 9.03148 4.25V12.75C9.03148 13.0434 8.79363 13.2812 8.50023 13.2812C8.20683 13.2812 7.96898 13.0434 7.96898 12.75V4.25C7.96898 3.9566 8.20683 3.71875 8.50023 3.71875Z" fill="#A3A3A3"/>
  <path fill-rule="evenodd" clip-rule="evenodd" d="M6.53083 2.2806C6.7383 2.07313 7.07466 2.07313 7.28213 2.2806L8.50023 3.4987L9.71833 2.2806C9.9258 2.07313 10.2622 2.07313 10.4696 2.2806C10.6771 2.48807 10.6771 2.82443 10.4696 3.0319L8.87588 4.62565C8.66841 4.83312 8.33205 4.83312 8.12458 4.62565L6.53083 3.0319C6.32336 2.82443 6.32336 2.48807 6.53083 2.2806Z" fill="#A3A3A3"/>
  <path fill-rule="evenodd" clip-rule="evenodd" d="M8.12458 12.3743C8.33205 12.1669 8.66841 12.1669 8.87588 12.3743L10.4696 13.9681C10.6771 14.1756 10.6771 14.5119 10.4696 14.7194C10.2622 14.9269 9.9258 14.9269 9.71833 14.7194L8.50023 13.5013L7.28213 14.7194C7.07466 14.9269 6.7383 14.9269 6.53083 14.7194C6.32336 14.5119 6.32336 14.1756 6.53083 13.9681L8.12458 12.3743Z" fill="#A3A3A3"/>
  <path fill-rule="evenodd" clip-rule="evenodd" d="M4.3613 6.10928C4.50805 5.85522 4.83298 5.76823 5.08704 5.91498L12.4449 10.165C12.6989 10.3117 12.7859 10.6367 12.6392 10.8907C12.4924 11.1448 12.1675 11.2318 11.9134 11.085L4.55561 6.83502C4.30154 6.68827 4.21455 6.36335 4.3613 6.10928Z" fill="#A3A3A3"/>
  <path fill-rule="evenodd" clip-rule="evenodd" d="M4.09929 3.68377C4.38267 3.60774 4.67402 3.77583 4.75005 4.05921L5.33443 6.23734C5.41046 6.52072 5.24236 6.81208 4.95899 6.8881L2.78086 7.47248C2.49748 7.54851 2.20612 7.38042 2.13009 7.09704C2.05407 6.81366 2.22216 6.5223 2.50554 6.44627L4.17056 5.99956L3.72384 4.33454C3.64782 4.05116 3.81591 3.7598 4.09929 3.68377Z" fill="#A3A3A3"/>
  <path fill-rule="evenodd" clip-rule="evenodd" d="M14.8704 9.90296C14.9464 10.1863 14.7783 10.4777 14.4949 10.5537L12.8299 11.0004L13.2766 12.6655C13.3526 12.9488 13.1846 13.2402 12.9012 13.3162C12.6178 13.3923 12.3264 13.2242 12.2504 12.9408L11.666 10.7627C11.59 10.4793 11.7581 10.1879 12.0415 10.1119L14.2196 9.52752C14.503 9.45149 14.7943 9.61958 14.8704 9.90296Z" fill="#A3A3A3"/>
  <path fill-rule="evenodd" clip-rule="evenodd" d="M12.6392 6.10928C12.7859 6.36335 12.6989 6.68827 12.4449 6.83502L5.08704 11.085C4.83298 11.2318 4.50805 11.1448 4.3613 10.8907C4.21455 10.6367 4.30154 10.3117 4.55561 10.165L11.9134 5.91498C12.1675 5.76823 12.4924 5.85522 12.6392 6.10928Z" fill="#A3A3A3"/>
  <path fill-rule="evenodd" clip-rule="evenodd" d="M2.13009 9.90296C2.20612 9.61958 2.49748 9.45149 2.78086 9.52752L4.95899 10.1119C5.24236 10.1879 5.41046 10.4793 5.33443 10.7627L4.75005 12.9408C4.67402 13.2242 4.38267 13.3923 4.09929 13.3162C3.81591 13.2402 3.64782 12.9488 3.72384 12.6655L4.17056 11.0004L2.50554 10.5537C2.22216 10.4777 2.05407 10.1863 2.13009 9.90296Z" fill="#A3A3A3"/>
  <path fill-rule="evenodd" clip-rule="evenodd" d="M12.9012 3.68377C13.1846 3.7598 13.3526 4.05116 13.2766 4.33454L12.8299 5.99956L14.4949 6.44627C14.7783 6.5223 14.9464 6.81366 14.8704 7.09704C14.7943 7.38042 14.503 7.54851 14.2196 7.47248L12.0415 6.8881C11.9054 6.85159 11.7894 6.76252 11.719 6.64048C11.6486 6.51844 11.6295 6.37342 11.666 6.23734L12.2504 4.05921C12.3264 3.77583 12.6178 3.60774 12.9012 3.68377Z" fill="#A3A3A3"/>
</svg>
