<svg xmlns="http://www.w3.org/2000/svg" width="12" height="12" viewBox="0 0 12 12" fill="none">
  <path fill-rule="evenodd" clip-rule="evenodd" d="M4.875 5.625C4.25368 5.625 3.75 6.12868 3.75 6.75C3.75 7.37132 4.25368 7.875 4.875 7.875C5.49632 7.875 6 7.37132 6 6.75C6 6.12868 5.49632 5.625 4.875 5.625ZM3 6.75C3 5.71447 3.83947 4.875 4.875 4.875C5.91053 4.875 6.75 5.71447 6.75 6.75C6.75 7.78553 5.91053 8.625 4.875 8.625C3.83947 8.625 3 7.78553 3 6.75Z" fill="#6E6E6E"/>
  <path fill-rule="evenodd" clip-rule="evenodd" d="M1.34467 2.09467C1.48532 1.95402 1.67609 1.875 1.875 1.875H10.125C10.3239 1.875 10.5147 1.95402 10.6553 2.09467C10.796 2.23532 10.875 2.42609 10.875 2.625V9.375C10.875 9.57391 10.796 9.76468 10.6553 9.90533C10.5147 10.046 10.3239 10.125 10.125 10.125H7.24688C7.10201 10.125 6.9701 10.0416 6.90804 9.91066C6.72559 9.52589 6.4377 9.20079 6.07782 8.97314C5.71793 8.74549 5.30084 8.625 4.875 8.625C4.44916 8.625 4.03207 8.74549 3.67218 8.97314C3.3123 9.20079 3.02441 9.52589 2.84196 9.91066C2.7799 10.0416 2.64799 10.125 2.50313 10.125H1.875C1.67609 10.125 1.48532 10.046 1.34467 9.90533C1.20402 9.76468 1.125 9.57391 1.125 9.375V2.625C1.125 2.42609 1.20402 2.23532 1.34467 2.09467ZM10.125 2.625L1.875 2.625L1.875 9.375H2.27672C2.5189 8.9554 2.85978 8.59958 3.27124 8.3393C3.75109 8.03578 4.30722 7.875 4.875 7.875C5.44278 7.875 5.99891 8.03578 6.47876 8.3393C6.89022 8.59958 7.2311 8.9554 7.47328 9.375H10.125V2.625Z" fill="#6E6E6E"/>
  <path fill-rule="evenodd" clip-rule="evenodd" d="M2.625 3.75C2.625 3.54289 2.79289 3.375 3 3.375H9C9.20711 3.375 9.375 3.54289 9.375 3.75V8.25C9.375 8.45711 9.20711 8.625 9 8.625H8.25C8.04289 8.625 7.875 8.45711 7.875 8.25C7.875 8.04289 8.04289 7.875 8.25 7.875H8.625V4.125H3.375V4.5C3.375 4.70711 3.20711 4.875 3 4.875C2.79289 4.875 2.625 4.70711 2.625 4.5V3.75Z" fill="#6E6E6E"/>
</svg>
