<svg xmlns="http://www.w3.org/2000/svg" width="17" height="16" viewBox="0 0 17 16" fill="none">
  <path fill-rule="evenodd" clip-rule="evenodd" d="M8.33337 2.5C5.29581 2.5 2.83337 4.96243 2.83337 8C2.83337 11.0376 5.29581 13.5 8.33337 13.5C11.3709 13.5 13.8334 11.0376 13.8334 8V7.00037C13.8334 6.72422 14.0572 6.5 14.3334 6.5C14.6095 6.5 14.8334 6.72386 14.8334 7V8C14.8334 11.5899 11.9232 14.5 8.33337 14.5C4.74352 14.5 1.83337 11.5899 1.83337 8C1.83337 4.41015 4.74352 1.5 8.33337 1.5L9.3329 1.5L9.33337 2L9.33337 2.5L8.33337 2.5ZM9.83337 2C9.83337 2.27614 9.60951 2.5 9.33337 2.5L9.33337 2L9.3329 1.5C9.60904 1.5 9.83337 1.72386 9.83337 2Z" fill="#0D0E0D"/>
  <path fill-rule="evenodd" clip-rule="evenodd" d="M11.8334 2.5C11.5572 2.5 11.3334 2.27614 11.3334 2C11.3334 1.72386 11.5572 1.5 11.8334 1.5H14.3334C14.6095 1.5 14.8334 1.72386 14.8334 2V4.5C14.8334 4.77614 14.6095 5 14.3334 5C14.0572 5 13.8334 4.77614 13.8334 4.5V3.20711L12.1869 4.85355C11.9917 5.04882 11.6751 5.04882 11.4798 4.85355C11.2846 4.65829 11.2846 4.34171 11.4798 4.14645L13.1263 2.5H11.8334Z" fill="#0D0E0D"/>
  <path d="M8.33337 4C8.60952 4 8.83337 4.22386 8.83337 4.5V5H9.83337C10.1095 5 10.3334 5.22386 10.3334 5.5C10.3334 5.77614 10.1095 6 9.83337 6H7.58337C7.38446 6 7.1937 6.07902 7.05304 6.21967C6.91239 6.36032 6.83337 6.55109 6.83337 6.75C6.83337 6.94891 6.91239 7.13968 7.05304 7.28033C7.1937 7.42098 7.38446 7.5 7.58337 7.5H9.08337C9.5475 7.5 9.99262 7.68437 10.3208 8.01256C10.649 8.34075 10.8334 8.78587 10.8334 9.25C10.8334 9.71413 10.649 10.1592 10.3208 10.4874C9.99262 10.8156 9.5475 11 9.08337 11H8.83337V11.5C8.83337 11.7761 8.60952 12 8.33337 12C8.05723 12 7.83337 11.7761 7.83337 11.5V11H6.83337C6.55723 11 6.33337 10.7761 6.33337 10.5C6.33337 10.2239 6.55723 10 6.83337 10H9.08337C9.28229 10 9.47305 9.92098 9.6137 9.78033C9.75436 9.63968 9.83337 9.44891 9.83337 9.25C9.83337 9.05109 9.75436 8.86032 9.6137 8.71967C9.47305 8.57902 9.28229 8.5 9.08337 8.5H7.58337C7.11925 8.5 6.67413 8.31563 6.34594 7.98744C6.01775 7.65925 5.83337 7.21413 5.83337 6.75C5.83337 6.28587 6.01775 5.84075 6.34594 5.51256C6.67413 5.18437 7.11925 5 7.58337 5H7.83337V4.5C7.83337 4.22386 8.05723 4 8.33337 4Z" fill="#0D0E0D"/>
</svg>
