<svg xmlns="http://www.w3.org/2000/svg" width="20" height="20" viewBox="0 0 20 20" fill="none">
  <path fill-rule="evenodd" clip-rule="evenodd" d="M3.39791 2.60867C3.68311 2.41422 4.07194 2.48778 4.26639 2.77298L13.6414 16.523C13.8358 16.8082 13.7623 17.197 13.4771 17.3915C13.1919 17.5859 12.8031 17.5123 12.6086 17.2271L3.23361 3.47715C3.03916 3.19195 3.11272 2.80312 3.39791 2.60867Z" fill="#A3A3A3"/>
  <path fill-rule="evenodd" clip-rule="evenodd" d="M6.52291 2.60867C6.80811 2.41422 7.19694 2.48778 7.39139 2.77298L16.7664 16.523C16.9608 16.8082 16.8873 17.197 16.6021 17.3915C16.3169 17.5859 15.9281 17.5123 15.7336 17.2271L6.35861 3.47715C6.16416 3.19195 6.23772 2.80312 6.52291 2.60867Z" fill="#A3A3A3"/>
  <path fill-rule="evenodd" clip-rule="evenodd" d="M16.6704 2.66254C16.415 2.43035 16.0197 2.44917 15.7875 2.70458L10.475 8.54833C10.2428 8.80374 10.2617 9.19903 10.5171 9.43122C10.7725 9.66341 11.1678 9.64459 11.4 9.38918L16.7125 3.54542C16.9446 3.29001 16.9258 2.89473 16.6704 2.66254ZM9.48292 10.5688C9.22751 10.3366 8.83223 10.3554 8.60003 10.6108L3.28753 16.4546C3.05534 16.71 3.07416 17.1053 3.32958 17.3375C3.58499 17.5697 3.98027 17.5508 4.21246 17.2954L9.52496 11.4517C9.75715 11.1963 9.73833 10.801 9.48292 10.5688Z" fill="#A3A3A3"/>
</svg>
