<svg xmlns="http://www.w3.org/2000/svg" width="18" height="17" viewBox="0 0 18 17" fill="none">
  <path fill-rule="evenodd" clip-rule="evenodd" d="M13.25 12.75C13.5434 12.75 13.7812 12.9878 13.7812 13.2812V14.875C13.7812 15.1684 13.5434 15.4062 13.25 15.4062C12.9566 15.4062 12.7188 15.1684 12.7188 14.875V13.2812C12.7188 12.9878 12.9566 12.75 13.25 12.75Z" fill="#A3A3A3"/>
  <path fill-rule="evenodd" clip-rule="evenodd" d="M4.75 12.75C5.0434 12.75 5.28125 12.9878 5.28125 13.2812V14.875C5.28125 15.1684 5.0434 15.4062 4.75 15.4062C4.4566 15.4062 4.21875 15.1684 4.21875 14.875V13.2812C4.21875 12.9878 4.4566 12.75 4.75 12.75Z" fill="#A3A3A3"/>
  <path fill-rule="evenodd" clip-rule="evenodd" d="M2.09375 3.71875C2.09375 3.13195 2.56945 2.65625 3.15625 2.65625H14.8438C15.4306 2.65625 15.9062 3.13195 15.9062 3.71875V12.75C15.9062 13.3368 15.4306 13.8125 14.8438 13.8125H3.15625C2.56945 13.8125 2.09375 13.3368 2.09375 12.75V3.71875ZM14.8438 3.71875H3.15625V12.75H14.8438V3.71875Z" fill="#A3A3A3"/>
  <path d="M10.5938 9.5625C11.1806 9.5625 11.6562 9.0868 11.6562 8.5C11.6562 7.9132 11.1806 7.4375 10.5938 7.4375C10.0069 7.4375 9.53125 7.9132 9.53125 8.5C9.53125 9.0868 10.0069 9.5625 10.5938 9.5625Z" fill="#A3A3A3"/>
  <path fill-rule="evenodd" clip-rule="evenodd" d="M10.0625 8.5C10.0625 8.2066 10.3003 7.96875 10.5938 7.96875H15.375C15.6684 7.96875 15.9062 8.2066 15.9062 8.5C15.9062 8.7934 15.6684 9.03125 15.375 9.03125H10.5938C10.3003 9.03125 10.0625 8.7934 10.0625 8.5Z" fill="#A3A3A3"/>
  <path fill-rule="evenodd" clip-rule="evenodd" d="M10.5938 6.375C9.42015 6.375 8.46875 7.3264 8.46875 8.5C8.46875 9.6736 9.42015 10.625 10.5938 10.625C11.7674 10.625 12.7188 9.6736 12.7188 8.5C12.7188 7.3264 11.7674 6.375 10.5938 6.375ZM7.40625 8.5C7.40625 6.73959 8.83334 5.3125 10.5938 5.3125C12.3542 5.3125 13.7812 6.73959 13.7812 8.5C13.7812 10.2604 12.3542 11.6875 10.5938 11.6875C8.83334 11.6875 7.40625 10.2604 7.40625 8.5Z" fill="#A3A3A3"/>
</svg>
