<svg xmlns="http://www.w3.org/2000/svg" width="16" height="16" viewBox="0 0 16 16" fill="none">
  <path fill-rule="evenodd" clip-rule="evenodd" d="M3.5 3.5C3.36739 3.5 3.24021 3.55268 3.14645 3.64645C3.05268 3.74021 3 3.86739 3 4C3 4.13261 3.05268 4.25978 3.14645 4.35355C3.24021 4.44732 3.36739 4.5 3.5 4.5H13.5C13.7652 4.5 14.0196 4.60536 14.2071 4.79289C14.3946 4.98043 14.5 5.23478 14.5 5.5V12.5C14.5 12.7652 14.3946 13.0196 14.2071 13.2071C14.0196 13.3946 13.7652 13.5 13.5 13.5H3.5C3.10217 13.5 2.72064 13.342 2.43934 13.0607C2.15804 12.7794 2 12.3978 2 12V4C2 3.60218 2.15804 3.22064 2.43934 2.93934C2.72064 2.65804 3.10218 2.5 3.5 2.5H12C12.2761 2.5 12.5 2.72386 12.5 3C12.5 3.27614 12.2761 3.5 12 3.5H3.5ZM3 5.41421V12C3 12.1326 3.05268 12.2598 3.14645 12.3536C3.24021 12.4473 3.36739 12.5 3.5 12.5H13.5V5.5H3.5C3.32803 5.5 3.1591 5.47047 3 5.41421Z" fill="#0D0E0D"/>
  <path d="M11.25 9.75C11.6642 9.75 12 9.41421 12 9C12 8.58579 11.6642 8.25 11.25 8.25C10.8358 8.25 10.5 8.58579 10.5 9C10.5 9.41421 10.8358 9.75 11.25 9.75Z" fill="#0D0E0D"/>
</svg>
