<svg xmlns="http://www.w3.org/2000/svg" width="17" height="17" viewBox="0 0 17 17" fill="none">
  <path fill-rule="evenodd" clip-rule="evenodd" d="M4.61345 10.3736C4.16178 10.1873 3.67773 10.0922 3.18917 10.0938C2.89577 10.0947 2.65717 9.85759 2.65625 9.56419C2.65533 9.27079 2.89243 9.03219 3.18583 9.03127C3.81449 9.0293 4.43733 9.15166 5.01851 9.39133C5.59969 9.63099 6.12774 9.98323 6.57227 10.4278C7.01679 10.8723 7.36902 11.4003 7.60869 11.9815C7.84835 12.5627 7.97072 13.1855 7.96875 13.8142C7.96783 14.1076 7.72923 14.3447 7.43583 14.3438C7.14243 14.3428 6.90533 14.1043 6.90625 13.8109C6.90779 13.3223 6.81269 12.8382 6.62643 12.3866C6.44017 11.9349 6.16643 11.5245 5.82096 11.1791C5.4755 10.8336 5.06512 10.5598 4.61345 10.3736Z" fill="#A3A3A3"/>
  <path fill-rule="evenodd" clip-rule="evenodd" d="M2.65625 6.37502C2.65625 6.08162 2.8941 5.84377 3.1875 5.84377C5.30094 5.84377 7.32783 6.68333 8.82226 8.17776C10.3167 9.67219 11.1562 11.6991 11.1562 13.8125C11.1562 14.1059 10.9184 14.3438 10.625 14.3438C10.3316 14.3438 10.0938 14.1059 10.0938 13.8125C10.0938 11.9809 9.36613 10.2242 8.07096 8.92906C6.77578 7.63389 5.01915 6.90627 3.1875 6.90627C2.8941 6.90627 2.65625 6.66842 2.65625 6.37502Z" fill="#A3A3A3"/>
  <path fill-rule="evenodd" clip-rule="evenodd" d="M7.05087 4.48406C5.82659 3.97638 4.51386 3.71628 3.1885 3.71877C2.8951 3.71932 2.6568 3.48192 2.65625 3.18852C2.6557 2.89512 2.8931 2.65682 3.1865 2.65627C4.65221 2.65351 6.10394 2.94116 7.45786 3.5026C8.81134 4.06386 10.0403 4.88761 11.0737 5.92632C12.1124 6.95976 12.9362 8.18867 13.4974 9.54216C14.0589 10.8961 14.3465 12.3478 14.3437 13.8135C14.3432 14.1069 14.1049 14.3443 13.8115 14.3438C13.5181 14.3432 13.2807 14.1049 13.2813 13.8115C13.2837 12.4862 13.0236 11.1734 12.516 9.94915C12.0083 8.72487 11.2631 7.61329 10.3234 6.67863L10.3214 6.67662C9.38672 5.73695 8.27515 4.99174 7.05087 4.48406Z" fill="#A3A3A3"/>
  <path d="M3.45312 14.3438C3.89323 14.3438 4.25 13.987 4.25 13.5469C4.25 13.1068 3.89323 12.75 3.45312 12.75C3.01302 12.75 2.65625 13.1068 2.65625 13.5469C2.65625 13.987 3.01302 14.3438 3.45312 14.3438Z" fill="#A3A3A3"/>
</svg>
