<svg xmlns="http://www.w3.org/2000/svg" width="18" height="17" viewBox="0 0 18 17" fill="none">
  <path fill-rule="evenodd" clip-rule="evenodd" d="M10.5935 10.0938C10.9819 10.0935 11.3629 10.1997 11.6952 10.4007C12.0276 10.6019 12.2984 10.8902 12.4783 11.2345C12.6583 11.5788 12.7404 11.9658 12.7157 12.3534C12.6911 12.7411 12.5607 13.1146 12.3387 13.4334C12.1166 13.7521 11.8115 14.0039 11.4564 14.1614C11.1013 14.3188 10.7098 14.3759 10.3245 14.3265C9.9392 14.277 9.57483 14.1229 9.27099 13.8809C8.96716 13.6388 8.73548 13.3181 8.60114 12.9536C8.49967 12.6784 8.64059 12.3729 8.91588 12.2715C9.19118 12.17 9.49661 12.3109 9.59808 12.5862C9.66525 12.7684 9.78109 12.9288 9.93301 13.0498C10.0849 13.1708 10.2671 13.2479 10.4598 13.2726C10.6524 13.2973 10.8481 13.2688 11.0257 13.1901C11.2033 13.1113 11.3558 12.9854 11.4668 12.8261C11.5779 12.6667 11.6431 12.4799 11.6554 12.2861C11.6677 12.0923 11.6266 11.8988 11.5367 11.7266C11.4467 11.5545 11.3113 11.4103 11.1451 11.3097C10.979 11.2092 10.7884 11.1561 10.5942 11.1563H3.15625C2.86285 11.1563 2.625 10.9184 2.625 10.625C2.625 10.3316 2.86285 10.0938 3.15625 10.0938H10.5935Z" fill="#A3A3A3"/>
  <path fill-rule="evenodd" clip-rule="evenodd" d="M8.90069 3.80995C8.72314 3.73122 8.5274 3.70267 8.33475 3.7274C8.14211 3.75212 7.95992 3.82918 7.80801 3.9502C7.65609 4.07122 7.54025 4.23156 7.47308 4.4138C7.37161 4.6891 7.06618 4.83002 6.79088 4.72855C6.51559 4.62708 6.37467 4.32165 6.47614 4.04635C6.61048 3.68187 6.84216 3.36118 7.14599 3.11915C7.44983 2.87711 7.8142 2.723 8.19949 2.67354C8.58478 2.62409 8.97626 2.68119 9.33137 2.83865C9.68648 2.99611 9.99164 3.24789 10.2137 3.56663C10.4357 3.88538 10.5661 4.25888 10.5907 4.64655C10.6154 5.03423 10.5333 5.42123 10.3533 5.7655C10.1734 6.10978 9.90256 6.39815 9.57022 6.59927C9.23801 6.80031 8.85706 6.90648 8.46875 6.90625H2.09375C1.80035 6.90625 1.5625 6.6684 1.5625 6.375C1.5625 6.0816 1.80035 5.84375 2.09375 5.84375H8.46875C8.66298 5.84391 8.85395 5.79082 9.02012 5.69026C9.18629 5.5897 9.32171 5.44551 9.41167 5.27338C9.50164 5.10124 9.54269 4.90774 9.53038 4.7139C9.51807 4.52007 9.45286 4.33331 9.34185 4.17394C9.23083 4.01457 9.07825 3.88868 8.90069 3.80995Z" fill="#A3A3A3"/>
  <path fill-rule="evenodd" clip-rule="evenodd" d="M14.7444 5.93495C14.5669 5.85622 14.3712 5.82767 14.1785 5.8524C13.9859 5.87712 13.8037 5.95418 13.6518 6.0752C13.4998 6.19622 13.384 6.35656 13.3168 6.5388C13.2154 6.8141 12.9099 6.95502 12.6346 6.85355C12.3593 6.75208 12.2184 6.44665 12.3199 6.17135C12.4542 5.80687 12.6859 5.48618 12.9897 5.24415C13.2936 5.00212 13.6579 4.848 14.0432 4.79854C14.4285 4.74909 14.82 4.80619 15.1751 4.96365C15.5302 5.12111 15.8354 5.37289 16.0574 5.69163C16.2795 6.01038 16.4099 6.38388 16.4345 6.77155C16.4591 7.15923 16.377 7.54623 16.1971 7.8905C16.0172 8.23478 15.7463 8.52315 15.414 8.72427C15.0817 8.92532 14.7008 9.0315 14.3124 9.03125H2.625C2.3316 9.03125 2.09375 8.7934 2.09375 8.5C2.09375 8.2066 2.3316 7.96875 2.625 7.96875H14.3125C14.5067 7.96891 14.6977 7.91582 14.8639 7.81526C15.03 7.7147 15.1655 7.57051 15.2554 7.39838C15.3454 7.22624 15.3864 7.03274 15.3741 6.8389C15.3618 6.64507 15.2966 6.45831 15.1856 6.29894C15.0746 6.13957 14.922 6.01368 14.7444 5.93495Z" fill="#A3A3A3"/>
</svg>
